<svg width="126" height="183" viewBox="0 0 126 183" fill="none" xmlns="http://www.w3.org/2000/svg">
<g id="Artery">
<g id="Vector 19">
<path d="M5 166.5L16 167L20 166.5L24.3216 165.503C25.6655 163.056 28.214 158.429 28.5 158L29.5 156.5C29.8905 155.914 29.8344 154.982 30 154C30.9094 148.609 30 145.467 30 140C30 139.219 29.8306 138.762 30 138C30.1894 137.148 30.5941 136.773 31 136C31.7318 134.606 32.1698 133.838 33 132.5C33.7426 131.304 35 129.5 35 129.5C35 129.5 36.0398 128.041 36.5 127C37.2276 125.353 37.5 122.5 37.5 122.5C37.5 122.5 37.5027 119.695 37 118C36.5035 116.326 35.8015 115.552 35 114C33.1547 110.428 31.9526 108.515 30 105L27.5 100.5L25.5 97C25.5 97 24.7898 95.2005 24.5 94C24.176 92.6578 24 90.5 24 90.5L23.5 86V78V71.5L24 84.5L24.5 87L25.5 89L26.5 91.5C26.8905 92.4763 27.0246 93.0621 27.5 94C28.1366 95.2559 28.7574 95.8037 29.5 97C30.3302 98.3375 30.6698 99.1625 31.5 100.5C32.2426 101.696 32.75 102.308 33.5 103.5C34.1064 104.464 34.3936 105.036 35 106C35.75 107.192 36.3634 107.744 37 109C37.4754 109.938 37.5357 110.557 38 111.5C38.5027 112.522 39.5 114 39.5 114L40.5 116L41 118.5V120.5L40.5 126L40 129C40 129 39.7293 129.927 39.5 130.5C39.1757 131.311 39.0136 131.794 38.5 132.5C38.0127 133.17 37.5858 133.414 37 134C36.219 134.781 35.3905 135.219 35 136L34 138C33.6095 138.781 34 140.133 34 141.5C34 145.796 31.9017 148.752 34 152.5C38.1146 159.85 49 137 49 137C49 137 51.0505 134.706 52 133C53.1113 131.003 53.506 129.731 54 127.5C54.5082 125.204 54.5 121.5 54.5 121.5L55 109C55 109 54.9959 104.997 54.5 102.5C54.1029 100.5 53.584 99.4532 53 97.5C51.4248 92.2318 49 84 49 84L48 80L47 76.5L43.5 73L40.5 68L37 60.5L34.5694 53.6944L33.6667 52.1667L32 49.5L31.5 48.5L33.6667 52.1667L34.5 53.5L34.5694 53.6944L38 59.5L41 63.5L43 67L46 70.5L49 73L49.5 74.5L51 78L52 82.5L53.5 87C53.5 87 54.3494 90.3708 55 92.5C55.5413 94.2716 55.9576 95.2288 56.5 97C56.9162 98.3592 56.2347 99.8521 57.5 100.5C59.1024 101.32 59.5219 98.5276 61 97.5C62.2926 96.6014 62.9639 95.8445 64.5 95.5C65.6432 95.2436 66.3284 95.5 67.5 95.5C71.4052 95.5 73.6192 95.9361 77.5 95.5C80.4683 95.1665 82.3875 95.448 85 94C86.8155 92.9938 87.4859 91.9199 89 90.5C90.41 89.1777 91.1332 88.3668 92.5 87C91.5237 82.8995 91.4214 80.4682 90 76.5C88.7629 73.0462 87.6489 71.2772 86 68C84.5081 65.0347 83.9519 63.185 82 60.5C80.6174 58.5982 78 56 78 56C78 56 76.2898 54.3138 75 53.5C73.2214 52.3778 71.8728 52.4568 70 51.5C66.5224 49.7232 62 45.5 62 45.5C62 45.5 53.4227 40.3675 49.5 35.5C48.446 34.1921 47 32 47 32L44 27L42 24V22V21C42 21 43.5291 23.1293 44.5 24.5C45.8777 26.445 48 29.5 48 29.5C48 29.5 49.6025 32.1363 51 33.5C51.8948 34.3732 53.5 35.5 53.5 35.5C53.5 35.5 55.3083 36.75 56.5 37.5C57.4636 38.1064 58.0247 38.4125 59 39C64.1061 42.0762 66.0502 46.6324 72 47C72.7796 47.0482 73.2535 47.2297 74 47C74.4173 46.8716 74.646 46.7556 75 46.5C76.4594 45.446 75.6095 43.7574 76 42L77 37.5L78 33.5C78 33.5 78.4448 31.9941 78.5 31C78.5766 29.6214 78.2601 28.856 78 27.5C77.6967 25.9186 77 23.5 77 23.5C77 23.5 76.287 21.3923 76 20C75.6038 18.0781 75.5 15 75.5 15L75 10L74.5 0.5L77.5 12L78.5 16L79.5 19.5L80.5 23C80.5 23 81.2103 25.1083 81.5 26.5C81.8209 28.0412 81.9165 28.928 82 30.5C82.0621 31.6699 82.1241 32.335 82 33.5C81.7841 35.5271 80.8942 36.4999 80.5 38.5C80.1581 40.2348 80 43 80 43V46.5C80 48.8431 78.7003 50.5504 80 52.5C80.4595 53.1893 81.5 54 81.5 54L83.5 56.5C84.2811 57.4763 84.7362 58.0101 85.5 59C86.0964 59.773 87 61 87 61C87 61 87.9726 62.491 88.5 63.5C89.1889 64.8179 89.3111 65.6821 90 67C90.5274 68.009 90.9494 68.5034 91.5 69.5C92.1334 70.6465 92.4688 71.3027 93 72.5C93.6765 74.025 94.0056 74.9066 94.5 76.5C94.9772 78.0378 94.5257 79.218 95.5 80.5C95.8342 80.9397 96.1095 81.1095 96.5 81.5C97.5765 78.8042 98.1252 77.2678 99 74.5C100.156 70.842 100.503 68.7044 101.5 65C102.079 62.8502 103 59.5 103 59.5V48.5C103 44.5948 102.183 42.3189 103 38.5C103.66 35.4152 104.686 33.8678 106 31C106.909 29.0153 107.605 27.9914 108.5 26C109.867 22.9563 110.529 21.1922 111.5 18V12.5L113 9L111.5 18C111.819 20.3213 111.819 21.6787 111.5 24C111.197 26.2056 110.687 27.3822 110 29.5C109.027 32.5008 108.172 34.0711 107 37C107 37 106.291 38.4897 106 39.5C105.188 42.3142 105.913 44.0724 106 47C106.146 51.895 102.114 59.8271 107 59.5C108.232 59.4175 110 58.5 110 58.5L113 56.5C113 56.5 115.324 54.8627 116.5 53.5C117.679 52.1348 118.154 51.1869 118.949 49.6026L119 49.5C120.025 47.4572 120.219 46.1479 121 44C121.781 41.8521 121.951 40.5306 123 38.5C123.523 37.4884 124.5 36 124.5 36C124.5 36 124.556 38.1343 124.5 39.5C124.42 41.4607 124.29 42.5591 124 44.5C123.706 46.4695 123.663 47.6222 123 49.5C122.419 51.1469 121.833 51.9648 121 53.5C121 53.5 119.701 56.9864 118 58.5C116.824 59.5464 115.839 59.6725 114.5 60.5C111.41 62.4092 109.183 63.0971 107 66C106.054 67.2582 105 69.5 105 69.5C105 69.5 103.948 73.8195 103 76.5C102.154 78.8932 101.621 80.2226 100.5 82.5C99.6121 84.3036 99.215 85.3984 98 87C96.8317 88.54 95.8114 89.0799 94.5 90.5C93.2786 91.8225 92.8668 92.8284 91.5 94C89.6424 95.5923 86 97 86 97L79 99H76C74.4379 99 73.536 98.7158 72 99C70.4147 99.2933 69.7415 100.22 68.1538 100.5C66.7486 100.748 65.8582 100.063 64.5 100.5C62.7864 101.052 61 103.5 61 103.5C61 103.5 59.5507 104.878 59 106C57.882 108.279 59.0305 109.962 59 112.5C58.9366 117.775 58.5 126 58.5 126C58.5 126 57.9489 128.757 57.5 130.5C57.1456 131.877 57.0027 132.67 56.5 134C55.8824 135.634 54.5 138 54.5 138C54.5 138 53.0337 140.176 52 141.5C50.8921 142.919 49 145 49 145L43.5 150.5L33 161C33 161 36.4042 159.389 38.5 160C39.3383 160.245 40.2324 160.084 41 160.5C42.0008 161.043 42.7095 161.681 43.5 162.5C44.4094 163.443 44.5205 163.781 45 165C45.5014 166.275 45.5008 167.487 45.5001 168.845L45.5 169C45.5 170.422 45.1755 171.249 44.5 172.5L44.4829 172.532C44.0291 173.372 43.7484 173.892 43 174.5C42.3223 175.051 41 175.5 41 175.5L35 178L27 181L21.5 182L16 182.5L4.5 181.5C4.5 181.5 6.849 181.228 7.5 180.5C8.37341 179.524 9 177.5 9 177.5L10 174.5L9 171L8.5 168.5L7 167L5 166.5Z" fill="#FB8EB8"/>
<path d="M92.5 87C91.1332 88.3668 90.41 89.1777 89 90.5C87.4859 91.9199 86.8155 92.9938 85 94C82.3875 95.448 80.4683 95.1665 77.5 95.5C73.6192 95.936 71.4052 95.5 67.5 95.5C66.3284 95.5 65.6432 95.2436 64.5 95.5C62.9639 95.8445 62.2926 96.6014 61 97.5C59.5219 98.5276 59.1024 101.32 57.5 100.5C56.2347 99.8521 56.9162 98.3592 56.5 97C55.9576 95.2288 55.5413 94.2716 55 92.5C54.3494 90.3708 53.5 87 53.5 87L52 82.5L51 78L49.5 74.5L49 73L46 70.5L43 67L41 63.5L38 59.5L31.5 48.5L32 49.5L34.5 53.5L37 60.5L40.5 68L43.5 73L47 76.5L48 80L49 84C49 84 51.4248 92.2318 53 97.5C53.584 99.4532 54.1029 100.5 54.5 102.5C54.9959 104.997 55 109 55 109L54.5 121.5C54.5 121.5 54.5082 125.204 54 127.5C53.506 129.731 53.1113 131.003 52 133C51.0505 134.706 49 137 49 137C49 137 38.1146 159.85 34 152.5C31.9017 148.752 34 145.796 34 141.5C34 140.133 33.6095 138.781 34 138C34.3905 137.219 34.6095 136.781 35 136C35.3905 135.219 36.219 134.781 37 134C37.5858 133.414 38.0127 133.17 38.5 132.5C39.0136 131.794 39.1757 131.311 39.5 130.5C39.7293 129.927 40 129 40 129L40.5 126L41 120.5V118.5L40.5 116L39.5 114C39.5 114 38.5027 112.522 38 111.5C37.5357 110.557 37.4754 109.938 37 109C36.3634 107.744 35.75 107.192 35 106C34.3936 105.036 34.1064 104.464 33.5 103.5C32.75 102.308 32.2426 101.696 31.5 100.5C30.6698 99.1625 30.3302 98.3375 29.5 97C28.7574 95.8037 28.1366 95.2559 27.5 94C27.0246 93.0621 26.8905 92.4763 26.5 91.5C26.1095 90.5237 25.5 89 25.5 89L24.5 87L24 84.5L23.5 71.5V78V86L24 90.5C24 90.5 24.176 92.6578 24.5 94C24.7898 95.2005 25.5 97 25.5 97L27.5 100.5C27.5 100.5 29.0237 103.243 30 105C31.9526 108.515 33.1547 110.428 35 114C35.8015 115.552 36.5035 116.326 37 118C37.5027 119.695 37.5 122.5 37.5 122.5C37.5 122.5 37.2276 125.353 36.5 127C36.0398 128.041 35 129.5 35 129.5C35 129.5 33.7426 131.304 33 132.5C32.1698 133.838 31.7318 134.606 31 136C30.5941 136.773 30.1894 137.148 30 138C29.8306 138.762 30 139.219 30 140C30 145.467 30.9094 148.609 30 154C29.8344 154.982 29.8905 155.914 29.5 156.5C29.1095 157.086 28.8905 157.414 28.5 158C28.1095 158.586 23.5 167 23.5 167L24.3333 165.5L20 166.5L16 167L5 166.5L7 167L8.5 168.5L9 171L10 174.5L9 177.5C9 177.5 8.37341 179.524 7.5 180.5C6.849 181.228 4.5 181.5 4.5 181.5L16 182.5L21.5 182L27 181L35 178L41 175.5C41 175.5 42.3223 175.051 43 174.5C43.7577 173.884 44.0361 173.359 44.5 172.5C45.1755 171.249 45.5 170.422 45.5 169C45.5 167.578 45.5204 166.323 45 165C44.5205 163.781 44.4094 163.443 43.5 162.5C42.7095 161.681 42.0008 161.043 41 160.5C40.2324 160.084 39.3383 160.245 38.5 160C36.4042 159.389 33 161 33 161M92.5 87C94.0621 84.8521 94.9379 83.6479 96.5 81.5M92.5 87C91.5237 82.8995 91.4214 80.4682 90 76.5C88.7629 73.0462 87.6489 71.2772 86 68C84.5081 65.0347 83.9519 63.185 82 60.5C80.6174 58.5982 78 56 78 56C78 56 76.2898 54.3138 75 53.5C73.2214 52.3778 71.8728 52.4568 70 51.5C66.5224 49.7232 62 45.5 62 45.5C62 45.5 53.4227 40.3675 49.5 35.5C48.446 34.1921 47 32 47 32L44 27L42 24V22V21C42 21 43.5291 23.1293 44.5 24.5C45.8777 26.445 48 29.5 48 29.5C48 29.5 49.6025 32.1363 51 33.5C51.8948 34.3732 53.5 35.5 53.5 35.5C53.5 35.5 55.3083 36.75 56.5 37.5C57.4636 38.1064 58.0247 38.4125 59 39C64.1061 42.0762 66.0502 46.6324 72 47C72.7796 47.0482 73.2535 47.2297 74 47C74.4173 46.8716 74.646 46.7556 75 46.5C76.4594 45.446 75.6095 43.7574 76 42C76.3905 40.2426 77 37.5 77 37.5L78 33.5C78 33.5 78.4448 31.9941 78.5 31C78.5766 29.6214 78.2601 28.856 78 27.5C77.6967 25.9186 77 23.5 77 23.5C77 23.5 76.287 21.3923 76 20C75.6038 18.0781 75.5 15 75.5 15L75 10L74.5 0.5L77.5 12L78.5 16L79.5 19.5L80.5 23C80.5 23 81.2103 25.1083 81.5 26.5C81.8209 28.0412 81.9165 28.928 82 30.5C82.0621 31.6699 82.1241 32.335 82 33.5C81.7841 35.5271 80.8942 36.4999 80.5 38.5C80.1581 40.2348 80 43 80 43C80 43 80 45.1332 80 46.5C80 48.8431 78.7003 50.5504 80 52.5C80.4595 53.1893 81.5 54 81.5 54C81.5 54 82.719 55.5237 83.5 56.5C84.281 57.4763 84.7362 58.0101 85.5 59C86.0964 59.773 87 61 87 61C87 61 87.9726 62.491 88.5 63.5C89.1889 64.8179 89.3111 65.6821 90 67C90.5274 68.009 90.9494 68.5034 91.5 69.5C92.1334 70.6465 92.4689 71.3027 93 72.5C93.6765 74.025 94.0056 74.9066 94.5 76.5C94.9772 78.0378 94.5257 79.218 95.5 80.5C95.8342 80.9397 96.1095 81.1095 96.5 81.5M96.5 81.5C97.5765 78.8042 98.1252 77.2678 99 74.5C100.156 70.842 100.503 68.7044 101.5 65C102.079 62.8502 103 59.5 103 59.5C103 59.5 103 52.7958 103 48.5C103 44.5948 102.183 42.3189 103 38.5C103.66 35.4152 104.686 33.8678 106 31C106.909 29.0153 107.605 27.9914 108.5 26C109.867 22.9563 110.529 21.1922 111.5 18M111.5 18C111.5 15.8521 111.5 12.5 111.5 12.5L113 9C113 9 112.086 14.4853 111.5 18ZM111.5 18C111.819 20.3213 111.819 21.6787 111.5 24C111.197 26.2056 110.687 27.3822 110 29.5C109.027 32.5008 108.172 34.0711 107 37C107 37 106.291 38.4897 106 39.5C105.188 42.3142 105.913 44.0724 106 47C106.146 51.895 102.114 59.8271 107 59.5C108.232 59.4175 110 58.5 110 58.5L113 56.5C113 56.5 115.324 54.8627 116.5 53.5C117.704 52.1056 118.174 51.1465 119 49.5C120.025 47.4572 120.219 46.1479 121 44C121.781 41.8521 121.951 40.5306 123 38.5C123.523 37.4884 124.5 36 124.5 36C124.5 36 124.556 38.1343 124.5 39.5C124.42 41.4607 124.29 42.5591 124 44.5C123.706 46.4695 123.663 47.6222 123 49.5C122.419 51.1469 121.833 51.9648 121 53.5C121 53.5 119.701 56.9864 118 58.5C116.824 59.5464 115.839 59.6725 114.5 60.5C111.41 62.4092 109.183 63.0971 107 66C106.054 67.2582 105 69.5 105 69.5C105 69.5 103.948 73.8195 103 76.5C102.154 78.8932 101.621 80.2226 100.5 82.5C99.6121 84.3036 99.215 85.3984 98 87C96.8317 88.54 95.8114 89.0799 94.5 90.5C93.2786 91.8225 92.8668 92.8284 91.5 94C89.6425 95.5923 86 97 86 97L79 99C79 99 77.1716 99 76 99C74.4379 99 73.536 98.7158 72 99C70.4147 99.2933 69.7415 100.22 68.1538 100.5C66.7485 100.748 65.8582 100.063 64.5 100.5C62.7864 101.052 61 103.5 61 103.5C61 103.5 59.5507 104.878 59 106C57.882 108.279 59.0305 109.962 59 112.5C58.9366 117.775 58.5 126 58.5 126C58.5 126 57.9489 128.757 57.5 130.5C57.1456 131.877 57.0027 132.67 56.5 134C55.8824 135.634 54.5 138 54.5 138C54.5 138 53.0337 140.176 52 141.5C50.8921 142.919 49 145 49 145L43.5 150.5L33 161M33 161C33 161 32.1549 162.866 31.5 164C30.796 165.219 30.6716 166.219 29.5 167C28.3284 167.781 27.6716 168.219 26.5 169" stroke="black"/>
</g>
<path id="Ellipse 1" d="M5 166.5C6.14611 166.5 7.25916 167.245 8.11133 168.608C8.95906 169.965 9.5 171.87 9.5 174C9.5 176.13 8.95906 178.035 8.11133 179.392C7.25916 180.755 6.14611 181.5 5 181.5C3.85389 181.5 2.74084 180.755 1.88867 179.392C1.04094 178.035 0.5 176.13 0.5 174C0.5 171.87 1.04094 169.965 1.88867 168.608C2.74084 167.245 3.85389 166.5 5 166.5Z" fill="#FF70A7" stroke="black"/>
</g>
</svg>
