<svg width="247" height="164" viewBox="0 0 247 164" fill="none" xmlns="http://www.w3.org/2000/svg">
<g id="Capillaries ">
<path d="M162 162.5C161.172 162.224 161.161 161.358 161 160.5C160.738 159.103 161.401 158.289 162 157C162.708 155.477 163.572 154.9 164.5 153.5C165.998 151.238 168 147.5 168 147.5L169.5 142.5L170.5 135.5V97C170.5 97 169.776 94.8945 169.5 93.5C168.856 90.2436 169.5 85 169.5 85C169.5 85 172.646 70.4315 170.5 61.5C170.168 60.1178 169.974 59.3401 169.5 58C169.004 56.5981 168.634 55.8451 168 54.5C166.957 52.287 166.172 51.1479 165 49C163.828 46.8521 163.272 45.5897 162 43.5C160.902 41.696 159.435 41.0668 159 39C158.759 37.8536 159 36 159 36C159 36 160.794 37.8636 162 39C163.51 40.4237 164.866 40.7613 166 42.5C166.477 43.2315 167 44.5 167 44.5C167 44.5 167.471 45.5354 168 46C169.815 47.5938 168.914 42.3431 169.5 40C169.891 38.4379 170.306 37.5985 170.5 36C170.688 34.4493 170.727 33.5455 170.5 32C170.294 30.5935 169.5 28.5 169.5 28.5V25.5L170.5 21.5V19.5L171.5 24.5C171.5 24.5 172.082 26.9451 172.5 28.5C172.869 29.8728 173.294 30.5935 173.5 32C173.727 33.5455 173.5 34.4379 173.5 36C173.5 37.5621 174.074 38.5472 173.5 40C173.041 41.1628 172.087 41.396 171.5 42.5C170.655 44.0897 170.683 45.209 170.5 47C170.342 48.554 170.273 49.4545 170.5 51C170.706 52.4065 170.328 53.6949 171.5 54.5C172.009 54.8497 173 55 173 55C174.407 54.9426 174.417 53.2818 175 52C175.824 50.1872 175.393 48.8965 176 47C176.586 45.1684 177.546 44.3687 178 42.5C178.599 40.0334 177.588 38.5047 178 36C178.401 33.5629 179.094 32.2979 180 30C180.865 27.8049 182.5 24.5 182.5 24.5L185.5 18.5L189 13L193.5 5.5L197 2L199.5 0.5C199.5 0.5 196.396 5.03393 194.5 8C193.508 9.55216 192.998 10.4514 192 12C190.856 13.7755 189.894 14.5865 189 16.5C188.137 18.3469 188.188 19.5811 187.5 21.5C186.261 24.9532 183.5 30 183.5 30C183.5 30 181.592 32.6703 182.5 34C183.686 35.7367 185.754 33.1728 187.5 32C189.104 30.922 189.297 29.4137 191 28.5C192.253 27.828 193.088 27.6605 194.5 27.5C195.47 27.3898 197 27.5 197 27.5C197 27.5 195.278 30.6604 193.5 32C191.964 33.1572 190.558 32.8722 189 34C187.319 35.2173 187.026 36.5935 185.5 38C184.064 39.3232 182.659 39.4286 181.5 41C179.84 43.2499 180.708 45.2953 180 48C179.328 50.5694 179.4 52.2428 178 54.5C177.341 55.5626 176.574 55.8895 176 57C174.654 59.6015 176.175 61.5763 176 64.5C175.811 67.6429 175.485 69.3891 175 72.5C174.51 75.6407 173.75 77.3312 173.5 80.5C173.316 82.8359 173.5 86.5 173.5 86.5C173.5 86.5 173.597 92.9007 173.5 97C173.402 101.104 172.922 103.396 173 107.5C173.056 110.435 173.362 112.068 173.5 115C173.83 122.022 173.5 125.971 173.5 133V135.5C175.648 133.352 178.538 133.002 179 130C179.119 129.228 179 128.781 179 128V125V121.5V116C179 114.5 180 112 180 112L181.5 107.5C181.5 107.5 183.134 104.814 184 103C184.906 101.102 186 98 186 98L188.5 93.5V90.5L188 86L186 82.5L184 79L183 76V72.5L184 69L185.68 65.22L187 59.5L186 64.5L185.68 65.22L184 72.5L186 76C186 76 187.367 78.8396 188.5 80.5C189.05 81.3064 189.452 81.692 190 82.5C190.639 83.4423 190.886 84.0413 191.5 85C191.88 85.5928 191.864 86.1986 192.5 86.5C193.529 86.9874 195 85 195 85C195 85 195.556 83.4531 196 82.5C196.665 81.073 198 79 198 79C198 79 198.733 77.8313 199 77C199.538 75.3269 198.848 74.2508 199 72.5C199.278 69.2916 199.673 67.4341 201 64.5C202.049 62.1804 203.129 61.1451 204.5 59C206.25 56.2618 206.874 54.4577 209 52C210.084 50.747 212 49 212 49L214.5 47L217 46C217 46 218.543 43.9506 220 43.5C221.119 43.1538 223 43.5 223 43.5L223.017 47L217 48L213 51L210.5 54.5C210.5 54.5 208.601 57.5068 207.5 59.5C206.233 61.7931 205.367 63.0279 204.5 65.5C203.321 68.8624 203 74.5 203 74.5L202.5 78.5C202.5 78.5 202.091 81.7776 201 83.5C200.114 84.8998 199.093 85.2547 198 86.5C196.712 87.9676 195 90.5 195 90.5L192.5 93.5L190 98C190 98 188.913 99.4521 189 100.5C189.195 102.835 192.657 100.5 195 100.5C196.562 100.5 197.797 99.5041 199 100.5C199.542 100.949 200 102 200 102H198L191.5 103C191.5 103 189.534 103.696 188.5 104.5C186.833 105.797 186.377 107.079 185.5 109C184.497 111.197 184 115 184 115L183 120L182.5 125C182.5 125 182 128 182.5 129C183 130 185.723 125.511 188 123.5C190.927 120.915 193.006 120.007 196 117.5C198.86 115.105 203 111 203 111L209 105.5C209 105.5 219.267 97.4613 223.5 90.5C225.088 87.8886 226.09 86.4178 227 83.5C227.593 81.599 228 78.5 228 78.5C228 78.5 227.534 73.603 227 70.5C226.526 67.7447 225.5 63.5 225.5 63.5C225.5 63.5 223.99 60.2324 223.5 58C223.038 55.8934 223 52.5 223 52.5C223 52.5 222.985 50.3668 223 49C223.047 44.7001 222.98 42.2687 223.5 38C224.078 33.2482 226 26 226 26C226 26 227.507 21.4909 228 18.5C228.826 13.4908 228 5.5 228 5.5C228 5.5 229.798 15.2905 229 21.5C228.565 24.8823 227 30 227 30C227 30 225.663 35.4405 225.5 39C225.438 40.3654 225.5 42.5 225.5 42.5C225.5 42.5 227.737 41.1075 229 40C229.83 39.2717 230.219 38.781 231 38L232.5 36.5C232.5 36.5 236.741 29.9006 236 32C235.709 32.8235 235.189 33.1476 235 34C234.831 34.7625 235 36 235 36L232 40C232 40 230.434 41.2042 229 42.5L225.5 46V51C225.5 51 225.918 56.0111 227 59C227.981 61.7109 229.443 62.8176 230.5 65.5C231.247 67.3967 231.672 68.488 232 70.5C232.409 73.0053 231.808 74.4689 232 77C232.195 79.5609 233.115 80.9343 233 83.5C232.911 85.4893 232.791 86.6725 232 88.5C231.007 90.7948 228 93.5 228 93.5C228 93.5 206 112 207 112.5C208 113 214 113 214 113L225.5 112.5C225.5 112.5 231.088 111.869 234 110C235.283 109.176 237 107.5 237 107.5C237 107.5 239.396 105.922 240.5 104.5C241.571 103.12 241.882 102.134 242.5 100.5C243.003 99.1703 242.385 98.4169 242.5 97C242.547 96.4161 242.5 95.5 242.5 95.5L243.5 96C243.5 96 244.943 97.0254 245 98C245.081 99.3783 245.747 100.142 245.5 101.5C245.39 102.108 245.306 102.464 245 103C244.589 103.719 243.968 103.816 243.5 104.5C242.803 105.519 243.089 106.415 242.5 107.5C241.904 108.599 241.354 109.086 240.5 110C239.299 111.285 238.481 111.895 237.098 112.927L237 113C235.871 113.842 234 115 234 115L231 116.5L228 117.5H223.5H219C219 117.5 215.943 117.691 214 117.5C212.018 117.306 210.985 116.66 209 116.5C207.638 116.39 206.835 116.208 205.5 116.5C204.473 116.725 203.939 117.026 203 117.5C200.767 118.626 199.949 119.934 198 121.5C189.346 128.452 180.076 129.175 176 139.5C175.547 140.649 175.589 141.415 175 142.5C174.404 143.599 173.711 143.971 173 145C172.353 145.937 171.96 146.459 171.5 147.5C170.772 149.147 171.339 150.407 170.5 152C170.172 152.623 169.855 152.892 169.5 153.5C168.749 154.784 168.842 155.775 168 157C167.218 158.138 166.433 158.483 165.5 159.5C164.469 160.624 164.504 162.246 163 162.5C162.615 162.565 162.37 162.623 162 162.5Z" fill="#D34FDF"/>
<path d="M4.99999 101.5V104V105L3.49999 104C3.49999 104 3.37909 103.217 2.99999 103C2.66092 102.806 1.99999 103 1.99999 103L1.49999 102.5V101.5V99C1.49999 99 1.31475 98.0557 1.49999 97.5C1.76196 96.7141 2.69232 96.7692 2.99999 96C3.29007 95.2748 2.99999 94 2.99999 94L3.49999 92.5C3.49999 92.5 4.47995 91.6449 4.99999 91C5.44195 90.452 5.99999 89.5 5.99999 89.5C5.99999 89.5 6.56569 88.5541 6.99999 88C7.68138 87.1306 8.99999 86 8.99999 86L9.99999 84.5C9.99999 84.5 11.2477 83.9433 12 83.5C12.6065 83.1426 12.8649 82.8038 13.5 82.5C14.057 82.2336 14.4429 82.2664 15 82C15.6351 81.6962 16.5 81 16.5 81C16.5 81 17.3934 80.3574 18 80C18.7523 79.5567 19.2189 79.3905 20 79C20.781 78.6095 21.2938 78.5136 22 78C22.67 77.5127 23.5 76.5 23.5 76.5V78L23 80L21 82C21 82 19.1204 82.8214 18 83.5C17.3978 83.8647 17.0928 84.1202 16.5 84.5C15.5413 85.1142 14.8961 85.2976 14 86C13.1306 86.6814 12.7395 87.1795 12 88C11.163 88.9288 9.99999 90.5 9.99999 90.5L6.99999 93H8.49999H11L13.5 92.5L17.5 92L20 91C20 91 21.8796 90.1786 23 89.5C23.6022 89.1353 23.9609 88.9528 24.5 88.5C25.4573 87.6958 25.5887 86.856 26.5 86C27.2116 85.3315 27.8353 85.2151 28.5 84.5C29.2752 83.6661 30 82 30 82L31 81H32H34H35.5H38.5H41.5L44 80C44.9763 79.6095 45.192 79.048 46 78.5C47.3029 77.6164 49.5 76.5 49.5 76.5L47.5 79C47.5 79 46.0309 80.8762 45 82C44.0666 83.0174 42.5 84.5 42.5 84.5C42.5 84.5 41.437 85.7258 40.5 86C39.7504 86.2194 39.281 86 38.5 86H35H32C32 86 30.651 86.7724 30 87.5C29.1266 88.4762 28.5 90.5 28.5 90.5C28.5 90.5 27.5022 92.2525 26.5 93C25.8 93.5221 24.5 94 24.5 94L22 96L20 97L18 97.5H16.5H14H11.5L8.99999 98L6.99999 99C6.99999 99 6.35522 99.5771 5.99999 100C5.54717 100.539 4.99999 101.5 4.99999 101.5Z" fill="#D34FDF"/>
<path d="M225.5 42.5C225.5 42.5 225.438 40.3654 225.5 39C225.663 35.4405 227 30 227 30C227 30 228.565 24.8823 229 21.5C229.798 15.2905 228 5.5 228 5.5C228 5.5 228.826 13.4908 228 18.5C227.507 21.4909 226 26 226 26C226 26 224.078 33.2482 223.5 38C222.98 42.2687 223.047 44.7001 223 49C222.985 50.3668 223 52.5 223 52.5C223 52.5 223.038 55.8934 223.5 58C223.99 60.2324 225.5 63.5 225.5 63.5C225.5 63.5 226.526 67.7447 227 70.5C227.534 73.603 228 78.5 228 78.5C228 78.5 227.593 81.599 227 83.5C226.09 86.4178 225.088 87.8886 223.5 90.5C219.267 97.4613 209 105.5 209 105.5L203 111C203 111 198.86 115.105 196 117.5C193.006 120.007 190.927 120.915 188 123.5C185.723 125.511 183 130 182.5 129C182 128 182.5 125 182.5 125L183 120L184 115C184 115 184.497 111.197 185.5 109C186.377 107.079 186.833 105.797 188.5 104.5C189.534 103.696 191.5 103 191.5 103L198 102H200C200 102 199.542 100.949 199 100.5C197.797 99.5041 196.562 100.5 195 100.5C192.657 100.5 189.195 102.835 189 100.5C188.913 99.4521 190 98 190 98L192.5 93.5L195 90.5C195 90.5 196.712 87.9676 198 86.5C199.093 85.2547 200.114 84.8998 201 83.5C202.091 81.7776 202.5 78.5 202.5 78.5L203 74.5C203 74.5 203.321 68.8624 204.5 65.5C205.367 63.0279 206.233 61.7931 207.5 59.5C208.601 57.5068 210.5 54.5 210.5 54.5L213 51L217 48L223.017 47L223 43.5C223 43.5 221.119 43.1538 220 43.5C218.543 43.9506 217 46 217 46L214.5 47L212 49C212 49 210.084 50.747 209 52C206.874 54.4577 206.25 56.2618 204.5 59C203.129 61.1451 202.049 62.1804 201 64.5C199.673 67.4341 199.278 69.2916 199 72.5C198.848 74.2508 199.538 75.3269 199 77C198.733 77.8313 198 79 198 79C198 79 196.665 81.073 196 82.5C195.556 83.4531 195 85 195 85C195 85 193.529 86.9874 192.5 86.5C191.864 86.1986 191.88 85.5928 191.5 85C190.886 84.0413 190.639 83.4423 190 82.5C189.452 81.692 189.05 81.3064 188.5 80.5C187.367 78.8396 186 76 186 76L184 72.5L187 59.5L186 64.5L184 69L183 72.5V76L184 79L186 82.5L188 86L188.5 90.5V93.5L186 98C186 98 184.906 101.102 184 103C183.134 104.814 181.5 107.5 181.5 107.5L180 112C180 112 179 114.5 179 116C179 117.5 179 121.5 179 121.5C179 121.5 179 123.633 179 125C179 126.172 179 126.828 179 128C179 128.781 179.119 129.228 179 130C178.538 133.002 175.648 133.352 173.5 135.5C173.5 135.5 173.5 133.976 173.5 133C173.5 125.971 173.83 122.022 173.5 115C173.362 112.068 173.056 110.435 173 107.5C172.922 103.396 173.402 101.104 173.5 97C173.597 92.9007 173.5 86.5 173.5 86.5C173.5 86.5 173.316 82.8359 173.5 80.5C173.75 77.3312 174.51 75.6407 175 72.5C175.485 69.3891 175.811 67.6429 176 64.5C176.175 61.5763 174.654 59.6015 176 57C176.574 55.8895 177.341 55.5626 178 54.5C179.4 52.2428 179.328 50.5694 180 48C180.708 45.2953 179.84 43.2499 181.5 41C182.659 39.4286 184.064 39.3232 185.5 38C187.026 36.5935 187.319 35.2173 189 34C190.558 32.8722 191.964 33.1572 193.5 32C195.278 30.6604 197 27.5 197 27.5C197 27.5 195.47 27.3898 194.5 27.5C193.088 27.6605 192.253 27.828 191 28.5C189.297 29.4137 189.104 30.922 187.5 32C185.754 33.1728 183.686 35.7367 182.5 34C181.592 32.6703 183.5 30 183.5 30C183.5 30 186.261 24.9532 187.5 21.5C188.188 19.5811 188.137 18.3469 189 16.5C189.894 14.5865 190.856 13.7755 192 12C192.998 10.4514 193.508 9.55216 194.5 8C196.396 5.03393 199.5 0.5 199.5 0.5L197 2L193.5 5.5L189 13L185.5 18.5L182.5 24.5C182.5 24.5 180.865 27.8049 180 30C179.094 32.2979 178.401 33.5629 178 36C177.588 38.5047 178.599 40.0334 178 42.5C177.546 44.3687 176.586 45.1684 176 47C175.393 48.8965 175.824 50.1872 175 52C174.417 53.2818 174.407 54.9426 173 55C173 55 172.009 54.8497 171.5 54.5C170.328 53.6949 170.706 52.4065 170.5 51C170.273 49.4545 170.342 48.554 170.5 47C170.683 45.209 170.655 44.0897 171.5 42.5C172.087 41.396 173.041 41.1628 173.5 40C174.074 38.5472 173.5 37.5621 173.5 36C173.5 34.4379 173.727 33.5455 173.5 32C173.294 30.5935 172.869 29.8728 172.5 28.5C172.082 26.9451 171.5 24.5 171.5 24.5L170.5 19.5V21.5L169.5 25.5V28.5C169.5 28.5 170.294 30.5935 170.5 32C170.727 33.5455 170.688 34.4493 170.5 36C170.306 37.5985 169.891 38.4379 169.5 40C168.914 42.3431 169.815 47.5938 168 46C167.471 45.5354 167 44.5 167 44.5C167 44.5 166.477 43.2315 166 42.5C164.866 40.7613 163.51 40.4237 162 39C160.794 37.8636 159 36 159 36C159 36 158.759 37.8536 159 39C159.435 41.0668 160.902 41.696 162 43.5C163.272 45.5897 163.828 46.8521 165 49C166.172 51.1479 166.957 52.287 168 54.5C168.634 55.8451 169.004 56.5981 169.5 58C169.974 59.3401 170.168 60.1178 170.5 61.5C172.646 70.4315 169.5 85 169.5 85C169.5 85 168.856 90.2436 169.5 93.5C169.776 94.8945 170.5 97 170.5 97V135.5L169.5 142.5L168 147.5C168 147.5 165.998 151.238 164.5 153.5C163.572 154.9 162.708 155.477 162 157C161.401 158.289 160.738 159.103 161 160.5C161.161 161.358 161.172 162.224 162 162.5C162.37 162.623 162.615 162.565 163 162.5C164.504 162.246 164.469 160.624 165.5 159.5C166.433 158.483 167.218 158.138 168 157C168.842 155.775 168.749 154.784 169.5 153.5C169.855 152.892 170.172 152.623 170.5 152C171.339 150.407 170.772 149.147 171.5 147.5C171.96 146.459 172.353 145.937 173 145C173.711 143.971 174.404 143.599 175 142.5C175.589 141.415 175.547 140.649 176 139.5C180.076 129.175 189.346 128.452 198 121.5C199.949 119.934 200.767 118.626 203 117.5C203.939 117.026 204.473 116.725 205.5 116.5C206.835 116.208 207.638 116.39 209 116.5C210.985 116.66 212.018 117.306 214 117.5C215.943 117.691 219 117.5 219 117.5C219 117.5 221.743 117.5 223.5 117.5C225.257 117.5 226.243 117.5 228 117.5L231 116.5L234 115C234 115 235.871 113.842 237 113C238.443 111.924 239.271 111.315 240.5 110C241.354 109.086 241.904 108.599 242.5 107.5C243.089 106.415 242.803 105.519 243.5 104.5C243.968 103.816 244.589 103.719 245 103C245.306 102.464 245.39 102.108 245.5 101.5C245.747 100.142 245.081 99.3783 245 98C244.943 97.0254 243.5 96 243.5 96L242.5 95.5C242.5 95.5 242.547 96.4161 242.5 97C242.385 98.4169 243.003 99.1703 242.5 100.5C241.882 102.134 241.571 103.12 240.5 104.5C239.396 105.922 237 107.5 237 107.5C237 107.5 235.283 109.176 234 110C231.088 111.869 225.5 112.5 225.5 112.5L214 113C214 113 208 113 207 112.5C206 112 228 93.5 228 93.5C228 93.5 231.007 90.7948 232 88.5C232.791 86.6725 232.911 85.4893 233 83.5C233.115 80.9343 232.195 79.5609 232 77C231.808 74.4689 232.409 73.0053 232 70.5C231.672 68.488 231.247 67.3967 230.5 65.5C229.443 62.8176 227.981 61.711 227 59C225.918 56.0111 225.5 51 225.5 51C225.5 51 225.5 47.9526 225.5 46M225.5 42.5C225.5 42.5 225.5 44.6332 225.5 46M225.5 42.5C225.5 42.5 227.737 41.1075 229 40C229.83 39.2717 230.219 38.781 231 38C231.586 37.4142 232.5 36.5 232.5 36.5C232.5 36.5 236.741 29.9006 236 32C235.709 32.8235 235.189 33.1476 235 34C234.831 34.7624 235 36 235 36L232 40C232 40 230.434 41.2042 229 42.5C229 42.5 226.867 44.6332 225.5 46M4.99999 104V101.5C4.99999 101.5 5.54717 100.539 5.99999 100C6.35522 99.5771 6.99999 99 6.99999 99L8.99999 98L11.5 97.5H14H16.5H18L20 97L22 96L24.5 94C24.5 94 25.8 93.5221 26.5 93C27.5022 92.2525 28.5 90.5 28.5 90.5C28.5 90.5 29.1266 88.4762 30 87.5C30.651 86.7724 32 86 32 86H35C35 86 37.1332 86 38.5 86C39.281 86 39.7504 86.2194 40.5 86C41.437 85.7258 42.5 84.5 42.5 84.5C42.5 84.5 44.0666 83.0174 45 82C46.0309 80.8762 47.5 79 47.5 79L49.5 76.5C49.5 76.5 47.3029 77.6164 46 78.5C45.192 79.048 44.9763 79.6095 44 80C43.0237 80.3905 42.4763 80.6095 41.5 81C41.5 81 39.6716 81 38.5 81C37.3284 81 35.5 81 35.5 81H34H32H31L30 82C30 82 29.2752 83.6661 28.5 84.5C27.8353 85.2151 27.2116 85.3315 26.5 86C25.5887 86.856 25.4573 87.6958 24.5 88.5C23.9609 88.9528 23.6022 89.1353 23 89.5C21.8796 90.1786 20 91 20 91L17.5 92L13.5 92.5L11 93H8.49999H6.99999C8.17157 92.0237 8.82842 91.4763 9.99999 90.5C9.99999 90.5 11.163 88.9288 12 88C12.7395 87.1795 13.1306 86.6814 14 86C14.8961 85.2976 15.5413 85.1142 16.5 84.5C17.0928 84.1202 17.3978 83.8647 18 83.5C19.1204 82.8214 21 82 21 82L23 80L23.5 78V76.5C23.5 76.5 22.67 77.5127 22 78C21.2938 78.5136 20.781 78.6095 20 79C19.2189 79.3905 18.7523 79.5567 18 80C17.3934 80.3574 16.5 81 16.5 81C16.5 81 15.6351 81.6962 15 82C14.4429 82.2664 14.057 82.2336 13.5 82.5C12.8649 82.8038 12.6065 83.1426 12 83.5C11.2477 83.9433 9.99999 84.5 9.99999 84.5C9.60947 85.0858 9.39052 85.4142 8.99999 86C8.99999 86 7.68138 87.1306 6.99999 88C6.56569 88.5541 5.99999 89.5 5.99999 89.5C5.99999 89.5 5.44195 90.452 4.99999 91C4.47995 91.6449 3.49999 92.5 3.49999 92.5L2.99999 94C2.99999 94 3.29007 95.2748 2.99999 96C2.69232 96.7692 1.76196 96.7141 1.49999 97.5C1.31475 98.0557 1.49999 99 1.49999 99C1.49999 99.9763 1.49999 101.5 1.49999 101.5V102.5L1.99999 103C1.99999 103 2.66092 102.806 2.99999 103C3.37909 103.217 3.49999 104 3.49999 104L4.99999 105V104Z" stroke="black" stroke-linejoin="round"/>
</g>
</svg>
