<svg width="246" height="235" viewBox="0 0 246 235" fill="none" xmlns="http://www.w3.org/2000/svg">
<g id="Dermis">
<g id="Dermis_2">
<path d="M8.42187 178.771L1.39596 23.2639C1.31337 21.4358 3.81978 20.8445 4.56299 22.5167C4.82874 23.1147 5.42168 23.5 6.076 23.5H10.1754C10.3904 23.5 10.604 23.5347 10.8079 23.6026L17.8237 25.9412C17.941 25.9803 18.0544 26.0302 18.1625 26.0903L22.047 28.2483C22.3441 28.4134 22.6784 28.5 23.0183 28.5H29.5H34H36.3394C37.0571 28.5 37.7198 28.8846 38.0758 29.5077L39.321 31.6868C39.4394 31.8939 39.5939 32.0782 39.7771 32.2309L41.9437 34.0364C42.3032 34.336 42.7562 34.5 43.2241 34.5H46H48.7199C48.9057 34.5 49.0906 34.5259 49.2693 34.577L52.2307 35.423C52.4094 35.4741 52.5943 35.5 52.7801 35.5H55H57.1754C57.3904 35.5 57.604 35.5347 57.8079 35.6026L60.1921 36.3974C60.396 36.4653 60.6096 36.5 60.8246 36.5H64.5H70H72.1716C72.702 36.5 73.2107 36.7107 73.5858 37.0858L75.4142 38.9142C75.7893 39.2893 76.298 39.5 76.8284 39.5H79.6716C80.202 39.5 80.7107 39.7107 81.0858 40.0858L84.2276 43.2276C84.4076 43.4076 84.6202 43.5515 84.854 43.6517L87.6227 44.8383C87.8716 44.945 88.1397 45 88.4105 45H92H95.5L99.9981 45.4498C100.323 45.4823 100.626 45.626 100.857 45.8567C101.248 46.2485 101.833 46.3751 102.352 46.1805L105.039 45.173C105.342 45.0594 105.668 45.021 105.989 45.0611L108.918 45.4273C109.298 45.4748 109.656 45.6303 109.95 45.8754L112.355 47.8795C112.452 47.9597 112.555 48.0306 112.665 48.0914L117 50.5L117.962 50.9809C118.604 51.3019 119.369 51.2543 119.966 50.8562L119.996 50.8359C120.325 50.6169 120.711 50.5 121.106 50.5H123.5H125.394C125.789 50.5 126.175 50.6169 126.504 50.8359L129.996 53.1641C130.325 53.3831 130.711 53.5 131.106 53.5H133H135.802C135.934 53.5 136.065 53.487 136.194 53.4612L138.296 53.0408C138.432 53.0137 138.564 52.9725 138.691 52.918L141.333 51.786C141.764 51.6012 142.246 51.5738 142.695 51.7086L146.184 52.7552C146.668 52.9005 147 53.3462 147 53.8518C147 54.2539 147.211 54.6266 147.556 54.8335L149.5 56L151.5 57L153.642 57.857C153.879 57.9515 154.131 58 154.385 58H156.5L158.5 56L161 53L164.5 49L164.914 48.5858C165.289 48.2107 165.798 48 166.328 48H169.5H173.823C174.55 48 175.219 47.6062 175.572 46.9713L177.5 43.5L179.499 40.8353C180.078 40.0621 181.128 39.8142 181.993 40.2465L182.971 40.7357C183.852 41.1758 184.921 40.9102 185.493 40.1093L186.675 38.4554C186.887 38.1575 187.178 37.9238 187.514 37.7796L190.123 36.6617C190.372 36.555 190.64 36.5 190.911 36.5H191.969C192.317 36.5 192.659 36.4092 192.961 36.2365L195.515 34.7771C195.832 34.5958 196.094 34.3312 196.271 34.0119L198.364 30.2449C198.454 30.0824 198.567 29.9333 198.698 29.8019L201.981 26.5193C202.589 25.9106 203.519 25.7597 204.289 26.1447L205 26.5L207.025 27.715C207.336 27.9015 207.691 28 208.054 28H210.528C210.838 28 211.145 27.9277 211.422 27.7889L213.525 26.7375C213.836 26.5819 214.102 26.3477 214.295 26.0581L215.664 24.0038C215.883 23.6753 216 23.2893 216 22.8944V19.0736C216 18.6988 216.105 18.3315 216.304 18.0136L218.319 14.7889C218.439 14.5977 218.59 14.428 218.766 14.2872L220.452 12.9383C220.807 12.6546 221.247 12.5 221.702 12.5H222.298C222.753 12.5 223.193 12.6546 223.548 12.9383L224.952 14.0617C225.307 14.3454 225.747 14.5 226.202 14.5H227.576C227.855 14.5 228.132 14.4413 228.388 14.3276L232.5 12.5L236.5 10L242 7L244.492 5.57584C244.997 5.2873 245.346 4.79743 245.459 4.2401L245.5 0V3.83935C245.5 3.97549 245.486 4.10964 245.459 4.2401L244.023 154.591C244.014 155.487 242.93 155.93 242.296 155.296C242.107 155.107 241.849 155 241.581 155H241.062C239.76 155 238.806 156.223 239.121 157.485L239.147 157.59C239.358 158.43 239.002 159.311 238.267 159.771L235.965 161.209C235.661 161.399 235.31 161.5 234.951 161.5C234.655 161.5 234.362 161.569 234.096 161.702L232.606 162.447C231.928 162.786 231.5 163.479 231.5 164.236V165.08C231.5 165.664 231.245 166.219 230.802 166.599L228.128 168.89C228.043 168.963 227.952 169.029 227.855 169.087L225.5 170.5L223 172L222.391 172.406C221.834 172.777 221.5 173.402 221.5 174.07V174.798C221.5 175.253 221.345 175.693 221.062 176.048L219.899 177.502C219.639 177.826 219.286 178.061 218.886 178.175L216.943 178.731C216.348 178.9 215.865 179.336 215.636 179.911L215.239 180.902C215.087 181.282 215.105 181.71 215.288 182.076C215.669 182.837 215.306 183.76 214.509 184.059L212.893 184.665C212.328 184.877 211.889 185.333 211.698 185.905L211.265 187.205C211.107 187.68 210.663 188 210.162 188C209.52 188 209 188.52 209 189.162V189.5C209 190.328 208.328 191 207.5 191H206.828C206.298 191 205.789 191.211 205.414 191.586L203.64 193.36C203.547 193.453 203.445 193.537 203.335 193.61L202.333 194.278C202.113 194.425 201.925 194.613 201.778 194.833L201.149 195.777C201.05 195.925 200.972 196.085 200.915 196.254L200.397 197.808C200.16 198.52 199.494 199 198.743 199H198.25C197.56 199 197 199.56 197 200.25C197 200.94 196.44 201.5 195.75 201.5H194H193.875C192.839 201.5 192 202.339 192 203.375C192 203.781 191.868 204.175 191.625 204.5L190.735 205.687C190.58 205.894 190.386 206.068 190.164 206.202L188.475 207.215C188.164 207.401 187.809 207.5 187.446 207.5H185.606C185.211 207.5 184.825 207.617 184.496 207.836L182.571 209.119C182.201 209.366 181.924 209.729 181.783 210.151L181.094 212.219C181.032 212.405 181 212.6 181 212.796C181 213.527 180.565 214.187 179.894 214.474L177.991 215.289C177.669 215.427 177.389 215.647 177.179 215.928L176.144 217.308C176.048 217.436 175.968 217.574 175.906 217.72L174.764 220.384C174.593 220.784 174.296 221.117 173.918 221.333L171.566 222.676C171.216 222.877 171 223.249 171 223.652C171 224.154 170.667 224.595 170.185 224.733L168.951 225.086C168.092 225.331 167.5 226.116 167.5 227.009V227.264C167.5 228.021 167.072 228.714 166.394 229.053L165.096 229.702C164.709 229.895 164.395 230.209 164.202 230.596L163.738 231.525C163.582 231.836 163.348 232.102 163.058 232.295L162.504 232.664C162.175 232.883 161.789 233 161.394 233H160H158.5L157.504 233.664C157.175 233.883 156.789 234 156.394 234H154H152.118C151.433 234 150.806 233.613 150.5 233C150.194 232.387 149.567 232 148.882 232H147H145.13C144.72 232 144.32 231.874 143.984 231.638L139.808 228.716C139.605 228.573 139.429 228.394 139.291 228.187L138.61 227.165C138.537 227.055 138.453 226.953 138.36 226.86L137.874 226.374C137.338 225.838 136.546 225.651 135.827 225.891L133.034 226.822C132.685 226.938 132.31 226.956 131.952 226.873L126.918 225.712C126.337 225.578 125.846 225.191 125.579 224.657L125.553 224.606C125.214 223.928 124.521 223.5 123.764 223.5H123.5H122.472C122.162 223.5 121.855 223.428 121.578 223.289L119.161 222.081C119.054 222.027 118.952 221.964 118.856 221.892L117.428 220.821C117.147 220.611 116.927 220.331 116.789 220.009L115.755 217.594C115.589 217.208 115.306 216.884 114.945 216.667L113.732 215.939C113.264 215.659 112.703 215.581 112.177 215.725L108.323 216.775C107.797 216.919 107.236 216.841 106.768 216.561L105.475 215.785C105.164 215.599 104.809 215.5 104.446 215.5H101.554C101.191 215.5 100.836 215.401 100.525 215.215L98.7552 214.153C98.586 214.052 98.4027 213.976 98.2113 213.928L96.9235 213.606C96.6444 213.536 96.3837 213.407 96.1591 213.227L94.5478 211.938C94.1932 211.655 93.7526 211.5 93.2984 211.5H89.2462C89.0827 211.5 88.9198 211.48 88.7611 211.44L85.1685 210.542C85.0564 210.514 84.9469 210.476 84.8413 210.429L80.8393 208.651C80.615 208.551 80.411 208.411 80.2374 208.237L78.5843 206.584C78.2102 206.21 78 205.703 78 205.174C78 204.449 77.6072 203.782 76.974 203.43L73.953 201.752C73.6559 201.587 73.3216 201.5 72.9818 201.5H67.5H66.4199C65.836 201.5 65.2813 201.245 64.9014 200.802L63.066 198.66C62.7068 198.241 62.1823 198 61.6303 198C61.2212 198 60.8231 197.867 60.4958 197.622L59.3777 196.783C59.1293 196.597 58.841 196.471 58.5355 196.416L53.6774 195.532C53.5594 195.511 53.4396 195.5 53.3197 195.5H51.6409C51.2241 195.5 50.8177 195.37 50.4785 195.127L47.9141 193.296C47.6593 193.114 47.3249 193.088 47.0449 193.228C46.7195 193.39 46.3265 193.326 46.0693 193.069L45.4532 192.453C45.1585 192.158 44.779 191.963 44.3678 191.895L42.4568 191.576C42.1562 191.526 41.8711 191.408 41.6231 191.231L39.0215 189.373C38.6823 189.13 38.2759 189 37.8591 189H37.554C37.1915 189 36.8358 188.901 36.525 188.715L34.6883 187.613C34.5631 187.538 34.4302 187.477 34.2917 187.431L31.6879 186.563C31.5629 186.521 31.4342 186.492 31.3035 186.475L27.8399 186.042C27.615 186.014 27.3964 185.948 27.1936 185.847L24.6316 184.566C24.5451 184.523 24.4496 184.5 24.3529 184.5C24.134 184.5 23.9311 184.385 23.8184 184.197L23.0826 182.971C22.7212 182.369 22.0701 182 21.3676 182H21.3246C21.1096 182 20.896 182.035 20.6921 182.103L18.2439 182.919C18.1144 182.962 17.9763 182.882 17.9496 182.748L17.7504 181.752C17.7204 181.602 17.5 181.624 17.5 181.777C17.5 181.875 17.3928 181.936 17.3085 181.885L15.3389 180.703C15.1171 180.57 14.8634 180.5 14.6048 180.5H13.3852C13.1307 180.5 12.8786 180.451 12.6424 180.357L10.9689 179.688C10.6706 179.568 10.3356 179.582 10.0483 179.726C9.32025 180.09 8.45861 179.584 8.42187 178.771Z" fill="#F2D3BF"/>
<path d="M158.5 233L157.504 233.664C157.175 233.883 156.789 234 156.394 234H154H152.118C151.433 234 150.806 233.613 150.5 233V233C150.194 232.387 149.567 232 148.882 232H147H145.13C144.72 232 144.32 231.874 143.984 231.638L139.808 228.716C139.605 228.573 139.429 228.394 139.291 228.187L138.61 227.165C138.537 227.055 138.453 226.953 138.36 226.86L137.874 226.374C137.338 225.838 136.546 225.651 135.827 225.891L133.034 226.822C132.685 226.938 132.31 226.956 131.952 226.873L126.918 225.712C126.337 225.578 125.846 225.191 125.579 224.657L125.553 224.606C125.214 223.928 124.521 223.5 123.764 223.5H123.5H122.472C122.162 223.5 121.855 223.428 121.578 223.289L119.161 222.081C119.054 222.027 118.952 221.964 118.856 221.892L117.428 220.821C117.147 220.611 116.927 220.331 116.789 220.009L115.755 217.594C115.589 217.208 115.306 216.884 114.945 216.667L113.732 215.939C113.264 215.659 112.703 215.581 112.177 215.725L108.323 216.775C107.797 216.919 107.236 216.841 106.768 216.561L105.475 215.785C105.164 215.599 104.809 215.5 104.446 215.5H101.554C101.191 215.5 100.836 215.401 100.525 215.215L98.7552 214.153C98.586 214.052 98.4027 213.976 98.2113 213.928L96.9235 213.606C96.6444 213.536 96.3837 213.407 96.1591 213.227L94.5478 211.938C94.1932 211.655 93.7526 211.5 93.2984 211.5H89.2462C89.0827 211.5 88.9198 211.48 88.7611 211.44L85.1685 210.542C85.0564 210.514 84.9469 210.476 84.8413 210.429L80.8393 208.651C80.615 208.551 80.411 208.411 80.2374 208.237L78.5843 206.584C78.2102 206.21 78 205.703 78 205.174V205.174C78 204.449 77.6072 203.782 76.974 203.43L73.953 201.752C73.6559 201.587 73.3216 201.5 72.9817 201.5H67.5H66.4199C65.836 201.5 65.2813 201.245 64.9014 200.802L63.066 198.66C62.7068 198.241 62.1823 198 61.6303 198V198C61.2212 198 60.8231 197.867 60.4958 197.622L59.3777 196.783C59.1293 196.597 58.841 196.471 58.5355 196.416L53.6774 195.532C53.5594 195.511 53.4396 195.5 53.3197 195.5H51.6409C51.2241 195.5 50.8177 195.37 50.4785 195.127L47.9141 193.296C47.6593 193.114 47.3249 193.088 47.0449 193.228V193.228C46.7195 193.39 46.3265 193.326 46.0693 193.069L45.4532 192.453C45.1585 192.158 44.779 191.963 44.3678 191.895L42.4568 191.576C42.1563 191.526 41.8711 191.408 41.6231 191.231L39.0215 189.373C38.6823 189.13 38.2759 189 37.8591 189H37.554C37.1915 189 36.8358 188.901 36.525 188.715L34.6883 187.613C34.5631 187.538 34.4302 187.477 34.2917 187.431L31.6879 186.563C31.5629 186.521 31.4342 186.492 31.3035 186.475L27.8399 186.042C27.615 186.014 27.3964 185.948 27.1936 185.847L24.6316 184.566C24.5451 184.523 24.4496 184.5 24.3529 184.5V184.5C24.134 184.5 23.9311 184.385 23.8184 184.197L23.0826 182.971C22.7212 182.369 22.0701 182 21.3676 182H21.3246C21.1096 182 20.896 182.035 20.6921 182.103L18.2439 182.919C18.1144 182.962 17.9763 182.882 17.9496 182.748L17.7504 181.752C17.7204 181.602 17.5 181.624 17.5 181.777V181.777C17.5 181.875 17.3928 181.936 17.3085 181.885L15.3389 180.703C15.1171 180.57 14.8634 180.5 14.6048 180.5H13.3852C13.1307 180.5 12.8786 180.451 12.6424 180.357L10.9689 179.688C10.6706 179.568 10.3356 179.582 10.0483 179.726V179.726C9.32025 180.09 8.45861 179.584 8.42187 178.771L1.39596 23.2639C1.31337 21.4358 3.81978 20.8445 4.56299 22.5167V22.5167C4.82874 23.1147 5.42168 23.5 6.076 23.5H10.1754C10.3904 23.5 10.604 23.5347 10.8079 23.6026L17.8237 25.9412C17.941 25.9803 18.0544 26.0302 18.1625 26.0903L22.047 28.2483C22.3441 28.4134 22.6784 28.5 23.0183 28.5H29.5H34H36.3394C37.0571 28.5 37.7198 28.8846 38.0758 29.5077L39.321 31.6868C39.4394 31.8939 39.5939 32.0782 39.7771 32.2309L41.9437 34.0364C42.3032 34.336 42.7562 34.5 43.2241 34.5H46H48.7199C48.9057 34.5 49.0906 34.5259 49.2693 34.577L52.2307 35.423C52.4094 35.4741 52.5943 35.5 52.7801 35.5H55H57.1754C57.3904 35.5 57.604 35.5347 57.8079 35.6026L60.1921 36.3974C60.396 36.4653 60.6096 36.5 60.8246 36.5H64.5H70H72.1716C72.702 36.5 73.2107 36.7107 73.5858 37.0858L75.4142 38.9142C75.7893 39.2893 76.298 39.5 76.8284 39.5H79.6716C80.202 39.5 80.7107 39.7107 81.0858 40.0858L84.2276 43.2276C84.4076 43.4076 84.6202 43.5515 84.854 43.6517L87.6227 44.8383C87.8716 44.945 88.1397 45 88.4105 45H92H95.5L99.9981 45.4498C100.323 45.4823 100.626 45.626 100.857 45.8567V45.8567C101.248 46.2485 101.833 46.3751 102.352 46.1805L105.039 45.173C105.342 45.0594 105.668 45.021 105.989 45.0611L108.918 45.4273C109.298 45.4748 109.656 45.6303 109.95 45.8754L112.355 47.8795C112.452 47.9597 112.555 48.0306 112.665 48.0914L117 50.5L117.962 50.9809C118.604 51.3019 119.369 51.2543 119.966 50.8562L119.996 50.8359C120.325 50.6169 120.711 50.5 121.106 50.5H123.5H125.394C125.789 50.5 126.175 50.6169 126.504 50.8359L129.996 53.1641C130.325 53.3831 130.711 53.5 131.106 53.5H133H135.802C135.934 53.5 136.065 53.487 136.194 53.4612L138.296 53.0408C138.432 53.0137 138.564 52.9725 138.691 52.918L141.333 51.786C141.764 51.6012 142.246 51.5738 142.695 51.7086L146.184 52.7552C146.668 52.9005 147 53.3462 147 53.8518V53.8518C147 54.2539 147.211 54.6266 147.556 54.8335L149.5 56L151.5 57L153.642 57.857C153.879 57.9514 154.131 58 154.385 58H156.5M158.5 233L156.5 58M158.5 233H160H161.394C161.789 233 162.175 232.883 162.504 232.664L163.058 232.295C163.348 232.102 163.582 231.836 163.738 231.525L164.202 230.596C164.395 230.209 164.709 229.895 165.096 229.702L166.394 229.053C167.072 228.714 167.5 228.021 167.5 227.264V227.009C167.5 226.116 168.092 225.331 168.951 225.086L170.185 224.733C170.667 224.595 171 224.154 171 223.652V223.652C171 223.249 171.216 222.877 171.566 222.676L173.918 221.333C174.296 221.117 174.593 220.784 174.764 220.384L175.906 217.72C175.968 217.574 176.048 217.436 176.144 217.308L177.179 215.928C177.389 215.647 177.669 215.427 177.991 215.289L179.894 214.474C180.565 214.187 181 213.527 181 212.796V212.796C181 212.6 181.032 212.405 181.094 212.219L181.783 210.151C181.924 209.729 182.201 209.366 182.571 209.119L184.496 207.836C184.825 207.617 185.211 207.5 185.606 207.5H187.446C187.809 207.5 188.164 207.401 188.475 207.215L190.164 206.202C190.386 206.068 190.58 205.894 190.735 205.687L191.625 204.5C191.868 204.175 192 203.781 192 203.375V203.375C192 202.339 192.839 201.5 193.875 201.5H194H195.75C196.44 201.5 197 200.94 197 200.25V200.25C197 199.56 197.56 199 198.25 199H198.743C199.494 199 200.16 198.52 200.397 197.808L200.915 196.254C200.972 196.085 201.05 195.925 201.149 195.777L201.778 194.833C201.925 194.613 202.113 194.425 202.333 194.278L203.335 193.61C203.445 193.537 203.547 193.453 203.64 193.36L205.414 191.586C205.789 191.211 206.298 191 206.828 191H207.5C208.328 191 209 190.328 209 189.5V189.162C209 188.52 209.52 188 210.162 188V188C210.663 188 211.107 187.68 211.265 187.205L211.698 185.905C211.889 185.333 212.328 184.877 212.893 184.665L214.509 184.059C215.306 183.76 215.669 182.837 215.288 182.076V182.076C215.105 181.71 215.087 181.282 215.239 180.902L215.636 179.911C215.865 179.336 216.348 178.9 216.943 178.731L218.886 178.175C219.286 178.061 219.639 177.826 219.899 177.502L221.062 176.048C221.345 175.693 221.5 175.253 221.5 174.798V174.07C221.5 173.402 221.834 172.777 222.391 172.406L223 172L225.5 170.5L227.855 169.087C227.952 169.029 228.043 168.963 228.128 168.89L230.802 166.599C231.245 166.219 231.5 165.664 231.5 165.08V164.236C231.5 163.479 231.928 162.786 232.606 162.447L234.096 161.702C234.362 161.569 234.655 161.5 234.951 161.5V161.5C235.31 161.5 235.661 161.399 235.965 161.209L238.267 159.771C239.002 159.311 239.358 158.43 239.147 157.59L239.121 157.485C238.806 156.223 239.76 155 241.062 155H241.581C241.849 155 242.107 155.107 242.296 155.296V155.296C242.93 155.93 244.014 155.487 244.023 154.591L245.5 0V3.83935C245.5 4.55707 245.115 5.21976 244.492 5.57584L242 7L236.5 10L232.5 12.5L228.388 14.3276C228.132 14.4413 227.855 14.5 227.576 14.5H226.202C225.747 14.5 225.307 14.3454 224.952 14.0617L223.548 12.9383C223.193 12.6546 222.753 12.5 222.298 12.5H221.702C221.247 12.5 220.807 12.6546 220.452 12.9383L218.766 14.2872C218.59 14.428 218.439 14.5977 218.319 14.7889L216.304 18.0136C216.105 18.3315 216 18.6988 216 19.0736V22.8944C216 23.2893 215.883 23.6753 215.664 24.0038L214.295 26.0581C214.102 26.3477 213.836 26.5819 213.525 26.7375L211.422 27.7889C211.145 27.9277 210.838 28 210.528 28H208.054C207.691 28 207.336 27.9015 207.025 27.715L205 26.5L204.289 26.1447C203.519 25.7597 202.589 25.9106 201.981 26.5193L198.698 29.8019C198.567 29.9333 198.454 30.0824 198.364 30.2449L196.271 34.0119C196.094 34.3312 195.832 34.5958 195.515 34.7771L192.961 36.2365C192.659 36.4092 192.317 36.5 191.969 36.5H190.911C190.64 36.5 190.372 36.555 190.123 36.6617L187.514 37.7796C187.178 37.9238 186.887 38.1575 186.675 38.4554L185.493 40.1093C184.921 40.9102 183.852 41.1758 182.971 40.7357L181.993 40.2465C181.128 39.8142 180.078 40.0621 179.499 40.8353L177.5 43.5L175.572 46.9713C175.219 47.6062 174.55 48 173.823 48H169.5H166.328C165.798 48 165.289 48.2107 164.914 48.5858L164.5 49L161 53L158.5 56L156.5 58" stroke="black"/>
</g>
<path id="Vector 5" d="M71.0958 38.5319L68.035 37.5117C68.0117 37.5039 67.989 37.4945 67.967 37.4835C67.477 37.2385 67.6513 36.5 68.1992 36.5H68.9468C68.9822 36.5 69.0176 36.4973 69.0526 36.4919L72.25 36C74.4135 35.6672 76.5993 35.5 78.7882 35.5H80H81.8377C83.9322 35.5 86.013 35.1623 88 34.5L90.663 33.8342C91.5501 33.6125 92.4026 33.2699 93.1965 32.8163C94.706 31.9537 96.4145 31.5 98.153 31.5H100H102.885C103.958 31.5 105.029 31.3825 106.077 31.1496L106.728 31.0048C108.227 30.6717 109.644 30.04 110.894 29.1474C111.957 28.3881 113.142 27.8166 114.398 27.4577L115.24 27.2172C115.744 27.0731 116.266 27 116.791 27H117.599C118.186 27 118.761 27.174 119.25 27.5L119.297 27.5315C119.755 27.837 120.294 28 120.845 28H121.071C121.666 28 122.236 27.7638 122.657 27.3434C122.883 27.1171 123.155 26.9419 123.455 26.8295L127 25.5L131.5 24L136 23C138.322 22.3366 140.725 22 143.14 22H144H146.739C147.235 22 147.72 22.1469 148.133 22.4223C148.688 22.7922 149.367 22.9265 150.021 22.7957L153.275 22.145C153.757 22.0486 154.248 22 154.739 22H155.197C156.373 22 157.522 21.6521 158.5 21C159.478 20.3479 160.627 20 161.803 20H164H173.5H181.5H184.5H187.154C188.043 20 188.924 20.1697 189.75 20.5C190.576 20.8303 191.457 21 192.346 21H194H195.5C195.829 21 196.153 21.0766 196.447 21.2236L197 21.5C197.658 21.8288 198.383 22 199.118 22H200.197C201.061 22 201.922 22.1205 202.753 22.358L205 23L207.285 23.653C208.091 23.8832 208.925 24 209.763 24H210.71C211.232 24 211.749 23.9004 212.234 23.7066L213.794 23.0822C213.925 23.0301 214.026 22.9232 214.07 22.79L214.209 22.3717C214.355 21.9351 215 22.0398 215 22.5V23.3381C215 24.6948 214.345 25.968 213.241 26.7566C212.147 27.5378 210.746 27.7485 209.471 27.3235L209.225 27.2417C208.745 27.0816 208.242 27 207.736 27H207.427C206.817 27 206.216 26.8581 205.671 26.5854L205.505 26.5027C204.276 25.8882 202.806 26.0208 201.706 26.8453C201.569 26.9483 201.439 27.0609 201.318 27.1823L200.155 28.3448C198.723 29.777 197.458 31.3671 196.385 33.0846L195.5 34.5L194.671 36.1584C194.26 36.9806 193.419 37.5 192.5 37.5H190H189.866C189.012 37.5 188.216 37.9264 187.742 38.6363C187.582 38.877 187.382 39.0887 187.15 39.2623L186.548 39.714C185.868 40.2242 185.04 40.5 184.19 40.5H183.563C183.196 40.5 182.837 40.3913 182.532 40.1877C181.907 39.7713 181.093 39.7713 180.468 40.1877L180.257 40.3286C180.087 40.4423 179.932 40.579 179.799 40.7347L177.565 43.3409C177.191 43.7769 176.897 44.2751 176.695 44.8128L176.638 44.9653C175.953 46.7907 174.208 48 172.259 48C171.756 48 171.257 47.919 170.78 47.76L170.518 47.6726C169.208 47.236 167.792 47.236 166.482 47.6726L166.177 47.7743C164.759 48.2469 163.52 49.1404 162.623 50.3358L161 52.5L158.912 55.7804C158.033 57.1628 156.508 58 154.869 58C154.294 58 153.724 57.8966 153.186 57.6948L151.752 57.1572C150.598 56.7241 149.549 56.0488 148.677 55.1766C147.899 54.3993 146.981 53.7775 145.971 53.3445L145.806 53.2739C144.614 52.7633 143.332 52.5 142.035 52.5H141.404C140.148 52.5 138.905 52.7552 137.75 53.25C136.595 53.7448 135.352 54 134.096 54H132.5H131.578C130.54 54 129.517 53.7583 128.588 53.2941L127.704 52.8518C127.242 52.6212 126.85 52.2744 126.564 51.8455C126.198 51.2975 125.661 50.8869 125.036 50.6786L124.478 50.4928C123.519 50.1729 122.481 50.1729 121.522 50.4928L120.982 50.6726C120.332 50.8894 119.65 51 118.965 51H118.47C117.503 51 116.55 50.775 115.685 50.3427C115.23 50.1151 114.805 49.8325 114.418 49.5012L112.278 47.6668C111.761 47.2239 111.192 46.8461 110.584 46.5418L110.328 46.4142C108.517 45.5087 106.421 45.3597 104.5 46L103.349 46.3289C101.814 46.7675 100.186 46.7675 98.6513 46.3289C97.8875 46.1107 97.097 46 96.3026 46H94.0549C93.0214 46 91.991 45.8869 90.9821 45.6627C89.0166 45.2259 87.1668 44.3751 85.5561 43.1671L84 42L82.5941 41.1565C81.8669 40.7201 81.0941 40.3647 80.2895 40.0965C79.1043 39.7014 77.8631 39.5 76.6137 39.5H76.5133C75.8389 39.5 75.1657 39.4443 74.5005 39.3334L73.96 39.2433C72.9882 39.0814 72.0305 38.8435 71.0958 38.5319Z" fill="#BB998F" stroke="black"/>
</g>
</svg>
