<svg width="136" height="241" viewBox="0 0 136 241" fill="none" xmlns="http://www.w3.org/2000/svg">
<g id="Hair">
<path id="Vector404" d="M9.5 56L1 48L8.5 53.5L11.5 55L17.5 57.5L24 59.5L28 61L32.5 62H35L37.5 63L40 64L43 65L45.5 66.5L48 67.5L49.5 69L51 70L52.5 71.5L54.5 74L56.5 76.5L58 78.5L59.5 80L60.5 82L62.5 87.5L64 91L113.5 238L107.5 239.5L58 93L56.5 88.5L54.5 84L52.5 80L48 74L44 71.5L40.5 69L37.5 67.5L30.5 65.5L24 63.5L16 60L12 58.5L9.5 56Z" fill="#715530" stroke="black"/>
<g id="Vector0">
<path d="M76 72L80 78L86 74.5L84.5 72L82.5 69L79.5 66L76 63L73.5 61L70 59L67.5 58L65 57L62.5 55.5L59 54.5L56.5 54L53.5 53L51 52.5L48 52L45.5 51.5H43L40.5 50L39 49L32.5 45L35 47.5L36.5 49L39 51.5L41.5 54.5L45.5 55.5L49.5 57L53.5 58L58 59L62.5 60.5L65.5 63L70 66L73.5 69.5L76 72Z" fill="#715530"/>
<path d="M87.5 68L88 73.5L97 67L96.5 66.5L96 64.5L94 60.5L91.5 57L88.5 52.5L84.5 47.5L81.5 44L77.5 40.5L74 38L71 36.5L66.5 35.5H63.5L58 34.5L52.5 33.5L48 32.5L44 31L40.5 29L37.5 26L35 23L33 19.5L29.5 11L30.5 14L31 17L31.5 20L32.5 23L33.5 26L35.5 29L37.5 31.5L39 33L40.5 34.5L44 36.5L47 38L51 39.5L54.5 40.5L58.5 41.5L62.5 42.5L66.5 43L70.5 44L74 46L77.5 48.5L80.5 52.5L83 56.5L85 60.5L86.5 64.5L87.5 68Z" fill="#715530"/>
<path d="M97 7L95.5 0.5L97 2.5L98.5 4L99.5 6L101 7.5L102.5 9L104 11L106.5 12.5L108.5 14L111.5 16.5L115 19L118.5 20.5L122 22.5L125 24L127 25.5L130.5 27.5L133 30L135 32L128.5 39V38L128 36.5L127 34.5L125 32L122.5 30L120 27.5L118.5 26L114.5 23L111 21.5L107 19L104 17L101.5 14.5L99 11.5L98 9L97 7Z" fill="#715530"/>
<path d="M76 72L80 78L86 74.5L84.5 72L82.5 69L79.5 66L76 63L73.5 61L70 59L67.5 58L65 57L62.5 55.5L59 54.5L56.5 54L53.5 53L51 52.5L48 52L45.5 51.5H43L40.5 50L39 49L32.5 45L35 47.5L36.5 49L39 51.5L41.5 54.5L45.5 55.5L49.5 57L53.5 58L58 59L62.5 60.5L65.5 63L70 66L73.5 69.5L76 72Z" stroke="black"/>
<path d="M87.5 68L88 73.5L97 67L96.5 66.5L96 64.5L94 60.5L91.5 57L88.5 52.5L84.5 47.5L81.5 44L77.5 40.5L74 38L71 36.5L66.5 35.5H63.5L58 34.5L52.5 33.5L48 32.5L44 31L40.5 29L37.5 26L35 23L33 19.5L29.5 11L30.5 14L31 17L31.5 20L32.5 23L33.5 26L35.5 29L37.5 31.5L39 33L40.5 34.5L44 36.5L47 38L51 39.5L54.5 40.5L58.5 41.5L62.5 42.5L66.5 43L70.5 44L74 46L77.5 48.5L80.5 52.5L83 56.5L85 60.5L86.5 64.5L87.5 68Z" stroke="black"/>
<path d="M97 7L95.5 0.5L97 2.5L98.5 4L99.5 6L101 7.5L102.5 9L104 11L106.5 12.5L108.5 14L111.5 16.5L115 19L118.5 20.5L122 22.5L125 24L127 25.5L130.5 27.5L133 30L135 32L128.5 39V38L128 36.5L127 34.5L125 32L122.5 30L120 27.5L118.5 26L114.5 23L111 21.5L107 19L104 17L101.5 14.5L99 11.5L98 9L97 7Z" stroke="black"/>
</g>
</g>
</svg>
