<svg width="76" height="175" viewBox="0 0 76 175" fill="none" xmlns="http://www.w3.org/2000/svg">
<g id="Hair Follicle">
<path d="M8 1.49999C8 1.49999 8.94428 1.31475 9.5 1.49999C10.2859 1.76196 10.4585 2.37302 11 2.99999C11.9203 4.06564 12.2851 4.7869 13 5.99999C13.8867 7.50465 14.2784 8.40955 15 9.99999C15.8689 11.9151 16.2232 13.0457 17 15C31.8273 52.3016 51 112 51 112L53 116C53 116 55.0159 120.028 56.5 122.5C58.4516 125.75 62 130.5 62 130.5L66.5 135.5C66.5 135.5 69.2104 138.997 70.5 141.5C71.7454 143.918 72.1735 145.409 73 148C73.432 149.354 73.6309 150.127 74 151.5C74.4181 153.055 74.8194 153.9 75 155.5C75.1534 156.858 75 157.633 75 159C75 160.562 75.188 161.449 75 163C74.8063 164.598 74.754 165.577 74 167C73.4146 168.105 72 169.5 72 169.5C72 169.5 70.5304 170.29 69.5 170.5C68.3519 170.734 66.5 170.5 66.5 170.5C66.5 170.5 64.0497 169.673 63 168.5C62.5306 167.975 62.3905 167.586 62 167C61.6095 167.586 61.145 167.811 61 168.5C60.9196 168.882 61.0398 169.112 61 169.5C60.8927 170.546 60.7377 171.251 60 172C59.1336 172.88 58.1957 172.691 57 173C56.036 173.249 55.4909 173.403 54.5 173.5C53.5284 173.595 52.9763 173.5 52 173.5C51.0237 173.5 50.4574 173.691 49.5 173.5C48.2156 173.243 47.6465 172.633 46.5 172C45.5034 171.449 44.8961 171.202 44 170.5C43.1306 169.819 42.7811 169.281 42 168.5L40.5 167C39.9142 166.414 39.5013 166.16 39 165.5C38.1002 164.316 37.5 162 37.5 162C37.5 162 36.7323 160.213 36.5 159C36.1695 157.274 36.5 154.5 36.5 154.5V150V143V135.5V130.5V125C36.5 125 36.6534 122.858 36.5 121.5C36.3194 119.9 35.5 117.5 35.5 117.5L34 113.5L5 25.5C5 25.5 3.80887 22.4413 3 20.5C2.42805 19.1273 1.89471 18.4337 1.5 17C1.08216 15.4822 1.08348 14.572 1 13C0.937884 11.8301 1 9.99999 1 9.99999C1 9.02368 0.927347 8.4736 1 7.49999C1.0884 6.31555 1.5 4.49999 1.5 4.49999L6 17L8.5 24.5L40.5 118.5L41 120.5C41 120.5 41.3125 121.412 41.5 122C41.9317 123.354 42.2049 124.109 42.5 125.5C42.7866 126.851 43 129 43 129V134C43 138.296 43.3905 140.722 43 145C42.8569 146.568 42.5 150 42.5 150C42.5 150 42.5884 150.316 42.5 151.5C42.4273 152.474 42.3638 153.533 42.5 154.5C42.7682 156.404 43.0951 157.303 44 159C44.8668 160.625 45.4978 161.454 46.5 163C47.2661 164.181 47.8621 165.171 49 166C49.998 166.727 52 167 52 167C52 167 53.3351 167.125 54.5 167C55.49 166.894 56.0936 166.912 57 166.5C57.6409 166.209 58.5 165.5 58.5 165.5V162C57.6813 160.854 57.2426 160.196 56.5 159C55.6698 157.662 55.0892 156.96 54.5 155.5C53.8974 154.007 53.6806 153.1 53.5 151.5C53.3467 150.142 53.5 148 53.5 148C53.5 148 53.5762 146.169 53.5 145C53.2904 141.786 52.2911 140.122 51.5 137C50.162 131.721 50.294 128.44 48 123.5C47.6322 122.708 47.2937 122.322 47 121.5C46.4705 120.017 46.5 117.5 46.5 117.5C46.5 117.5 46.0189 115.024 45.5 113.5C45.0208 112.092 44.5823 111.368 44 110C26.496 68.864 7.5 1.49999 7.5 1.49999H8Z" fill="white"/>
<path d="M62 167C62.3905 167.586 62.5306 167.975 63 168.5C64.0497 169.673 66.5 170.5 66.5 170.5C66.5 170.5 68.3519 170.734 69.5 170.5C70.5304 170.29 72 169.5 72 169.5C72 169.5 73.4146 168.105 74 167C74.754 165.577 74.8063 164.598 75 163C75.188 161.449 75 160.562 75 159C75 157.633 75.1534 156.858 75 155.5C74.8194 153.9 74.4181 153.055 74 151.5C73.6309 150.127 73.432 149.354 73 148C72.1735 145.409 71.7454 143.918 70.5 141.5C69.2104 138.997 66.5 135.5 66.5 135.5L62 130.5C62 130.5 58.4516 125.75 56.5 122.5C55.0159 120.028 53 116 53 116L51 112C51 112 31.8273 52.3016 17 15C16.2232 13.0457 15.8689 11.9151 15 9.99999C14.2784 8.40955 13.8867 7.50465 13 5.99999C12.2851 4.7869 11.9203 4.06564 11 2.99999C10.4585 2.37302 10.2859 1.76196 9.5 1.49999C8.94428 1.31475 8 1.49999 8 1.49999H7.5C7.5 1.49999 26.496 68.864 44 110C44.5823 111.368 45.0208 112.092 45.5 113.5C46.0189 115.024 46.5 117.5 46.5 117.5C46.5 117.5 46.4705 120.017 47 121.5C47.2937 122.322 47.6322 122.708 48 123.5C50.294 128.44 50.162 131.721 51.5 137C52.2911 140.122 53.2904 141.786 53.5 145C53.5762 146.169 53.5 148 53.5 148C53.5 148 53.3467 150.142 53.5 151.5C53.6806 153.1 53.8974 154.007 54.5 155.5C55.0892 156.96 55.6698 157.662 56.5 159C57.2426 160.196 57.6813 160.854 58.5 162M62 167C61.1157 166.586 60.6448 166.233 60 165.5C59.0178 164.383 58.6312 163.481 58.5 162M62 167C61.6095 167.586 61.145 167.811 61 168.5C60.9196 168.882 61.0398 169.112 61 169.5C60.8927 170.546 60.7377 171.251 60 172C59.1336 172.88 58.1957 172.691 57 173C56.036 173.249 55.4909 173.403 54.5 173.5C53.5284 173.595 52.9763 173.5 52 173.5C51.0237 173.5 50.4574 173.691 49.5 173.5C48.2156 173.243 47.6465 172.633 46.5 172C45.5034 171.449 44.8961 171.202 44 170.5C43.1306 169.819 42.7811 169.281 42 168.5C41.4142 167.914 41.0858 167.586 40.5 167C39.9142 166.414 39.5013 166.16 39 165.5C38.1002 164.316 37.5 162 37.5 162C37.5 162 36.7323 160.213 36.5 159C36.1695 157.274 36.5 154.5 36.5 154.5V150V143V135.5V130.5V125C36.5 125 36.6533 122.858 36.5 121.5C36.3194 119.9 35.5 117.5 35.5 117.5L34 113.5L5 25.5C5 25.5 3.80887 22.4413 3 20.5C2.42805 19.1273 1.89471 18.4337 1.5 17C1.08216 15.4822 1.08348 14.572 1 13C0.937884 11.8301 1 9.99999 1 9.99999C1 9.02368 0.927347 8.4736 1 7.49999C1.0884 6.31555 1.5 4.49999 1.5 4.49999L6 17L8.5 24.5L40.5 118.5L41 120.5C41 120.5 41.3125 121.412 41.5 122C41.9317 123.354 42.2049 124.109 42.5 125.5C42.7866 126.851 43 129 43 129C43 129 43 132.047 43 134C43 138.296 43.3905 140.722 43 145C42.8569 146.568 42.5 150 42.5 150C42.5 150 42.5884 150.316 42.5 151.5C42.4273 152.474 42.3638 153.533 42.5 154.5C42.7682 156.404 43.0951 157.303 44 159C44.8668 160.625 45.4978 161.454 46.5 163C47.2661 164.181 47.8621 165.171 49 166C49.998 166.727 52 167 52 167C52 167 53.3351 167.125 54.5 167C55.49 166.894 56.0936 166.912 57 166.5C57.6409 166.209 58.5 165.5 58.5 165.5C58.5 165.5 58.5 163.367 58.5 162" stroke="black"/>
</g>
</svg>
