<svg width="21" height="54" viewBox="0 0 21 54" fill="none" xmlns="http://www.w3.org/2000/svg">
<path id="Hair Bulb" d="M2.5 4.5L1.5 2.5L7.73077 1L8.5 6L10.5 11L11.5 15L12.5 19.5L13.5 23C13.5 23 14.0851 25.7482 14.5 27.5C14.8711 29.0668 15.3062 29.9015 15.5 31.5C15.688 33.0507 15.3047 33.9379 15.5 35.5L16 39.5C16.1953 41.0621 16.5298 41.3581 17 42.5C17.4987 43.7112 18.5 45.5 18.5 45.5C18.5 45.5 19.7943 46.8802 20 48C20.1058 48.5761 20 49.5 20 49.5V51C19.738 51.7859 18.5 52.5 18.5 52.5C18.5 52.5 16.9763 53 16 53C15.0237 53 14.4472 53.2368 13.5 53C12.6528 52.7882 12.2451 52.4553 11.5 52C10.6669 51.4909 9.5 50.5 9.5 50.5C8.66597 49.3655 7.49689 48.179 6.5 46.5C6.5 46.5 5.28415 44.7787 5 43.5C4.74585 42.3563 5 40.5 5 40.5V35.5V18.5V15L4 9L2.5 4.5Z" fill="#715530" stroke="black"/>
</svg>
