<svg width="28" height="36" viewBox="0 0 28 36" fill="none" xmlns="http://www.w3.org/2000/svg">
<g id="Sebaceous Gland">
<path d="M17.5 6.5C19.8746 5.39364 20.5 0.5 20.5 0.5L23.5 7.5L22.5 9C22.5 9 22.2492 11.0797 23 12C23.445 12.5455 24.5 13 24.5 13C24.5 13 26.6768 14.8517 27 16.5C27.1503 17.2665 27.1609 17.7357 27 18.5C26.7099 19.8779 25.9957 20.5044 25 21.5C24.0044 22.4956 23.1716 22.719 22 23.5C21.8048 23.6953 21.6421 23.7632 21.5 24C21.1986 24.5023 21.5 24.9142 21.5 25.5C21.5 26.281 21.7194 26.7504 21.5 27.5C21.2258 28.437 20.6904 28.8096 20 29.5C19.3097 30.1904 18.8331 30.4909 18 31C17.2549 31.4554 16.8525 31.8106 16 32C15.2376 32.1694 14.7811 32 14 32C13.6404 32.9077 13.2707 33.4006 12.5 34C11.5252 34.7582 10.6914 35.3249 9.50001 35C8.82079 34.8148 8.52468 34.4694 8.00001 34C7.27243 33.349 6.90242 32.8895 6.50001 32C6.16818 31.2665 6.08286 30.8008 6.00001 30C5.93974 29.4173 6.00001 29.0858 6.00001 28.5C5.30142 28.8493 4.6986 28.8493 4.00001 28.5C3.50604 28.253 3.00001 27.5 3.00001 27.5C3.00001 27.5 2.12351 26.3645 2.00001 25.5C1.94478 25.1134 2.00001 24.8905 2.00001 24.5C1.53407 24.2035 1.29652 23.9659 1.00001 23.5C0.668507 22.9791 0.547372 22.6157 0.500014 22C0.438266 21.1973 0.72406 20.7563 1.00001 20C1.29933 19.1797 1.38254 18.6175 2.00001 18C2.61749 17.3825 4.00001 17 4.00001 17C4.00001 17 3.84588 16.0651 4.00001 15.5C4.00001 15.5 4.26282 14.8666 4.50001 14.5C4.95006 13.8045 5.2141 13.262 6.00001 13C6.55574 12.8148 6.93487 13.1541 7.50001 13C8.17923 12.8148 8.86194 12.6904 9.00001 12V11.5C8.81477 10.9443 8.81477 10.5557 9.00001 10C9.26198 9.21408 9.87735 9.04642 10.5 8.5C11.2338 7.85604 11.5738 7.30874 12.5 7C13.4262 6.69126 14.0284 7.09526 15 7C15.9909 6.90285 16.5975 6.92048 17.5 6.5Z" fill="#FFEBDE"/>
<path d="M9.00001 11.5C8.81477 10.9443 8.81477 10.5557 9.00001 10C9.26199 9.21408 9.87735 9.04642 10.5 8.5C11.2338 7.85604 11.5738 7.30874 12.5 7C13.4262 6.69126 14.0284 7.09526 15 7C15.9909 6.90285 16.5975 6.92048 17.5 6.5C19.8746 5.39364 20.5 0.5 20.5 0.5L23.5 7.5C23.1095 8.08579 22.8905 8.41421 22.5 9C22.5 9 22.2492 11.0797 23 12C23.445 12.5455 24.5 13 24.5 13C24.5 13 26.6768 14.8517 27 16.5C27.1503 17.2665 27.1609 17.7357 27 18.5C26.7099 19.8779 25.9957 20.5044 25 21.5C24.0044 22.4956 23.1716 22.719 22 23.5M9.00001 11.5C9.97632 11.5 11.5 11.5 11.5 11.5C12.8668 11.5 13.6332 11.5 15 11.5C15 11.5 17.0797 11.2492 18 12C18.5455 12.445 19 13.5 19 13.5L20.5 15L22 16.5L23 18.5V20.5L22 21.5M9.00001 11.5C9.00001 11.6953 9.00001 12 9.00001 12C8.86194 12.6904 8.17923 12.8148 7.50001 13C6.93487 13.1541 6.55574 12.8148 6.00001 13C5.2141 13.262 4.95006 13.8045 4.50001 14.5C4.26282 14.8666 4.00001 15.5 4.00001 15.5C3.84588 16.0651 4.00001 17 4.00001 17M22 21.5C22 21.5 22 22.719 22 23.5M22 21.5C22 21.5 20.6814 20.3694 20 19.5C19.5657 18.9459 19.5858 18.5858 19 18C18.4142 17.4142 18.0858 17.0858 17.5 16.5C16.9142 15.9142 16.67 15.4873 16 15C15.2938 14.4864 14.8627 14.1353 14 14C13.0164 13.8457 11.5 14.5 11.5 14.5L10.5 15.5M22 23.5C21.8048 23.6953 21.6421 23.7632 21.5 24C21.1986 24.5023 21.5 24.9142 21.5 25.5C21.5 26.281 21.7194 26.7504 21.5 27.5C21.2258 28.437 20.6904 28.8096 20 29.5C19.3097 30.1904 18.8331 30.4909 18 31C17.2549 31.4554 16.8525 31.8106 16 32C15.2376 32.1694 14.7811 32 14 32M4.00001 17C4.00001 17 5.21896 16.6953 6.00001 16.5C6.78106 16.3047 7.21499 16.1786 8.00001 16C8.97085 15.7791 10.5 15.5 10.5 15.5M4.00001 17C4.00001 17 2.61749 17.3825 2.00001 18C1.38254 18.6175 1.29933 19.1797 1.00001 20C0.72406 20.7563 0.438266 21.1973 0.500014 22C0.547372 22.6157 0.668507 22.9791 1.00001 23.5C1.29652 23.9659 1.53407 24.2035 2.00001 24.5M10.5 15.5C10.5 15.5 11.7544 15.6962 12.5 16C12.9044 16.1647 13.1554 16.2319 13.5 16.5C13.5 16.5 14.2087 17.3591 14.5 18C14.912 18.9064 15 20.5 15 20.5C15 20.5 15 21.1095 15 21.5M15 21.5C14.5441 20.9636 13.5 20.5 13.5 20.5H11.5C11.5 20.5 10.6075 20.1105 10 20C9.23156 19.8603 8.00001 20 8.00001 20C8.00001 20 6.8014 20.3637 6.50001 21C6.24925 21.5294 6.50001 21.9142 6.50001 22.5M15 21.5C15.4695 22.0247 15.6963 22.3649 16 23C16.2664 23.557 16.3706 23.8962 16.5 24.5C16.7455 25.6456 16.7335 26.3519 16.5 27.5C16.2904 28.5304 16.0197 29.0859 15.5 30C15.0175 30.8488 14.5858 31.219 14 32M6.50001 22.5C6.89054 23.281 7.10949 23.719 7.50001 24.5C7.69528 24.8905 7.67368 25.2099 8.00001 25.5C8.58378 26.0189 10 25.5 10 25.5M6.50001 22.5C6.10949 22.6953 5.90504 22.8369 5.50001 23C4.57641 23.3718 3.83398 22.9561 3.00001 23.5C2.53741 23.8017 2.39054 24.1095 2.00001 24.5M10 25.5C10 25.5 10.3048 24.8905 10.5 24.5M10 25.5C10 25.5 9.80637 26.4639 9.50001 27C9.089 27.7193 8.76919 28.1923 8.00001 28.5C7.27483 28.7901 6.78106 28.5 6.00001 28.5M2.00001 24.5C2.00001 24.8905 1.94478 25.1134 2.00001 25.5C2.12351 26.3645 3.00001 27.5 3.00001 27.5C3.00001 27.5 3.50604 28.253 4.00001 28.5C4.6986 28.8493 5.30142 28.8493 6.00001 28.5M6.00001 28.5C6.00001 29.0858 5.93974 29.4173 6.00001 30C6.08286 30.8008 6.16818 31.2665 6.50001 32C6.90242 32.8895 7.27243 33.349 8.00001 34C8.52468 34.4694 8.82079 34.8148 9.50001 35C10.6914 35.3249 11.5252 34.7582 12.5 34C13.2707 33.4006 13.6404 32.9077 14 32" stroke="black" stroke-linecap="round" stroke-linejoin="round"/>
</g>
</svg>
