<svg width="247" height="66" viewBox="0 0 247 66" fill="none" xmlns="http://www.w3.org/2000/svg">
<g id="Stratum Granulosum">
<g id="Vector 10">
<path d="M226.5 45.5L215 44.5L210 43L205 40.5L198 36L157.5 8.5L83.5 51L68 58L62.5 60.5L59.5 61.5H56L50.5 63L45 64.5L39 63.5H34H29L24 63L20.5 61.5L13 60L0.5 56.5V54L22.5 58L35 59H48.5L56 58L68 54L83.5 47L157.5 1.5L199.5 32.5L206 36L210 38.5L215 40.5H222.5L229.5 38.5L246 29.5L246.5 29V35L234.5 40.5L230.5 43L226.5 45.5Z" fill="#FEF8CF"/>
<path d="M157.5 8.5L198 36L205 40.5L210 43L215 44.5L226.5 45.5L230.5 43L234.5 40.5L246.5 35V29L246 29.5L229.5 38.5M157.5 8.5V1.5M157.5 8.5L83.5 51L68 58L62.5 60.5L59.5 61.5H56L50.5 63L45 64.5L39 63.5H34H29L24 63L20.5 61.5M157.5 1.5L199.5 32.5L206 36L210 38.5L215 40.5H222.5M157.5 1.5L83.5 47L68 54L56 58L48.5 59H35L22.5 58L0.5 54V56.5L13 60L20.5 61.5M222.5 40.5L228.5 39.5L229.5 38.5M222.5 40.5L229.5 38.5M20.5 61.5L16.5 60.7727L15 60.5" stroke="black"/>
</g>
<path id="Vector 11" d="M85.5 54.5L62.5 60.5L84.5 50.5L114.5 33.5L157.5 8.5L204.5 40L210.5 43L217.5 44.5L224.5 46L218.5 47H211.5L204.5 44.5L196 41L190 38.5L157.5 18L114.5 41L85.5 54.5Z" fill="#C6B280" stroke="black"/>
</g>
</svg>
