<svg width="206" height="78" viewBox="0 0 206 78" fill="none" xmlns="http://www.w3.org/2000/svg">
<g id="Stratum Lucidum">
<g id="Vector">
<path d="M13 75.5L26 73L39 71L52.5 65L75 51L105 26.5L136 1.5L171 37.5L182.5 48.5L183.5 49.5L193 55L183.5 50.5L175 44L136 7.5L105 30L75 54L64 61L52.5 67.5L39 73L28 75.5L18 77L13 75.5Z" fill="#F48212"/>
<path d="M0.5 75.5H13M13 75.5L26 73L39 71L52.5 65L75 51L105 26.5L136 1.5M13 75.5L18 77L28 75.5L39 73L52.5 67.5L64 61L75 54L105 30L136 7.5M136 1.5V7.5M136 1.5L171 37.5L182.5 48.5L183.5 49.5L193 55M136 7.5L175 44L183.5 50.5L193 55M193 55L197 56M197 56L201 57L205 58L197 56Z" stroke="black"/>
</g>
<g id="Vector 13">
<path d="M41.5 73.5L32 76L29 76.25L40 72.5L46.5 69.5L54 66.5L71 56.5L82 48.5L94 39L111 26L136.5 8L176 45L183.5 50L190.5 53.5L196 56L203.5 57.5L199 58.5H194L190.5 57L186 54.5L181 51.5L136.5 20L66.5 62L54.5 67.5L47.5 70.5L41.5 73.5Z" fill="#A76010"/>
<path d="M7.5 76L15 76.5H26L29 76.25M29 76.25L32 76L41.5 73.5L47.5 70.5L54.5 67.5L66.5 62L136.5 20L181 51.5L186 54.5L190.5 57L194 58.5H199L203.5 57.5L196 56L190.5 53.5L183.5 50L176 45L136.5 8L111 26L94 39L82 48.5L71 56.5L54 66.5L46.5 69.5L40 72.5L29 76.25Z" stroke="black"/>
</g>
</g>
</svg>
