<svg width="250" height="94" viewBox="0 0 250 94" fill="none" xmlns="http://www.w3.org/2000/svg">
<g id="Stratum Corneum">
<g id="Vector 14">
<path d="M1 83.5L20 87.5L27.5 88.5H36.5L45 86.5L55.5 83L67 78L96 59.5L158 1.5L204.5 58L210.5 63L215 66.5C215 66.5 218.29 68.1738 220.5 69C221.657 69.4325 222.287 69.7677 223.5 70C225.226 70.3305 228 70 228 70H232.5L238.5 69L232.5 72.5L228.5 74L225 73C225 73 220.696 71.2564 218 70C215.626 68.8933 214.279 68.2924 212 67L211.834 66.906C209.722 65.708 208.476 65.0016 206.5 63.5C204.628 62.0773 202 59.5 202 59.5L158 8C158 8 123.587 43.4326 98.5 62.5C91.0365 68.1727 87.0303 71.6628 79 76.5C74.4347 79.25 71.8361 80.76 67 83C61.5046 85.5454 58.298 86.7502 52.5 88.5C47.6939 89.9504 44.9295 90.55 40 91.5C36.3119 92.2108 34.2553 92.9289 30.5 93C26.9643 93.0669 25.0065 92.4583 21.5 92C13.6377 90.9724 1.5 88.5 1.5 88.5L1 83.5Z" fill="#F0E8C3"/>
<path d="M158 1.5L96 59.5L67 78L55.5 83L45 86.5L36.5 88.5H27.5L20 87.5L1 83.5L1.5 88.5C1.5 88.5 13.6377 90.9724 21.5 92C25.0065 92.4583 26.9643 93.0669 30.5 93C34.2553 92.9289 36.3119 92.2108 40 91.5C44.9295 90.55 47.6939 89.9504 52.5 88.5C58.298 86.7502 61.5046 85.5454 67 83C71.836 80.76 74.4347 79.25 79 76.5C87.0303 71.6628 91.0365 68.1727 98.5 62.5C123.587 43.4326 158 8 158 8M158 1.5V8M158 1.5L204.5 58L210.5 63L215 66.5C215 66.5 218.29 68.1738 220.5 69C221.657 69.4325 222.287 69.7677 223.5 70C225.226 70.3305 228 70 228 70H232.5L238.5 69L232.5 72.5L228.5 74L225 73C225 73 220.696 71.2564 218 70C215.626 68.8933 214.279 68.2924 212 67C209.785 65.744 208.527 65.0405 206.5 63.5C204.628 62.0773 202 59.5 202 59.5L158 8" stroke="black"/>
</g>
<path id="Vector" d="M67 83L53 89L61 87L67 85L78 79.5L95.5 69L158 18L206 67L213 71L218 73L225.5 74H227L224.5 73L212 67L206 63L202 59.5L158 8L157.5 8.5L101 60.5L92 67L78 77L67 83Z" fill="#C7B88E" stroke="black"/>
<g id="Vector 16">
<path d="M100.5 44L1.5 83C1.5 83 17.136 87.9544 27.5 88.5C31.0099 88.6848 33.0058 88.8789 36.5 88.5C40.0795 88.1119 42.0394 87.4938 45.5 86.5C48.8834 85.5283 50.7171 84.7703 54 83.5C59.3806 81.418 67.5 77.5 67.5 77.5C67.5 77.5 86.1528 67.567 96.5 59C102.988 53.6281 112 44 112 44H100.5Z" fill="#B4A377"/>
<path d="M206 59L248 63L236.5 69.5H236C236 69.5 229.577 70.4815 225.5 70C224.32 69.8607 225.576 70.2004 222.5 69.5C219.424 68.7996 217.755 68.0359 215 66.5C211.004 64.2725 206 59 206 59Z" fill="#B4A377"/>
<path d="M100.5 44L1.5 83C1.5 83 17.136 87.9544 27.5 88.5C31.0099 88.6848 33.0058 88.8789 36.5 88.5C40.0795 88.1119 42.0394 87.4938 45.5 86.5C48.8834 85.5283 50.7171 84.7703 54 83.5C59.3806 81.418 67.5 77.5 67.5 77.5C67.5 77.5 86.1528 67.567 96.5 59C102.988 53.6281 112 44 112 44H100.5Z" stroke="black"/>
<path d="M206 59L248 63L236.5 69.5H236C236 69.5 229.577 70.4815 225.5 70C224.32 69.8607 225.576 70.2004 222.5 69.5C219.424 68.7996 217.755 68.0359 215 66.5C211.004 64.2725 206 59 206 59Z" stroke="black"/>
</g>
</g>
</svg>
