<svg width="248" height="61" viewBox="0 0 248 61" fill="none" xmlns="http://www.w3.org/2000/svg">
<g id="Stratum Spinosum">
<path id="Vector 6" d="M56.303 57.5H54.0248C53.7228 57.5 53.6796 57.9359 53.9757 57.9951C53.9919 57.9984 54.0083 58 54.0248 58H54.6972C55.8727 58 57.0219 57.6521 58 57L59.5 56L60.0394 55.5954C60.9875 54.8844 62.1406 54.5 63.3257 54.5C63.7736 54.5 64.2197 54.4451 64.6541 54.3365L65.4843 54.1289C65.8256 54.0436 66.1496 53.9003 66.4423 53.7051C67.1195 53.2536 67.9484 53.0897 68.7465 53.2493L70 53.5L70.6832 53.6708C71.5584 53.8896 72.4071 54.2035 73.214 54.607L73.6728 54.8364C73.8906 54.9453 74.116 55.0387 74.3471 55.1157C75.1053 55.3684 75.7942 55.7942 76.3593 56.3593L76.909 56.909C77.302 57.302 77.7329 57.6553 78.1954 57.9636L78.6595 58.273C78.8859 58.424 79.0969 58.5969 79.2894 58.7894C80.0645 59.5645 81.1158 60 82.212 60H82.5H84H84.7951C85.5479 60 86.2508 59.6238 86.6684 58.9975C86.8857 58.6715 87.1843 58.4078 87.5348 58.2326L89 57.5L89.1844 57.3771C90.0576 56.795 91.0044 56.3319 92 56L93.5815 55.6046C93.8595 55.5351 94.1449 55.5 94.4314 55.5C94.808 55.5 95.1822 55.5607 95.5395 55.6798L95.75 55.75C96.2467 55.9156 96.7669 56 97.2906 56H98H98.941C99.3086 56 99.6712 55.9144 100 55.75L100.253 55.6236C100.415 55.5423 100.595 55.5 100.776 55.5C101.22 55.5 101.625 55.2494 101.824 54.8528L102 54.5C102.331 53.8377 102.767 53.2331 103.291 52.7094L103.432 52.5684C103.81 52.1904 104.224 51.8506 104.669 51.5541L105.5 51L106.053 50.7236C106.327 50.5866 106.5 50.3064 106.5 50V49.7071C106.5 49.2544 106.68 48.8201 107 48.5C107.32 48.1799 107.754 48 108.207 48H109H110.5H112.5H115H115.61C116.833 48 118.021 47.5835 118.976 46.8191C119.649 46.2809 120.441 45.9118 121.286 45.7429L121.612 45.6775C122.202 45.5597 122.772 45.3639 123.31 45.0952L124.5 44.5L128.5 42L131 40.5L131.734 39.9126C132.902 38.9782 134.226 38.2579 135.645 37.7849C136.214 37.5952 136.769 37.3653 137.306 37.097L138.5 36.5L138.711 36.3944C139.888 35.8062 141.185 35.5 142.5 35.5H145.5H147.125C147.703 35.5 148.276 35.6103 148.812 35.825C149.896 36.2583 151.104 36.2583 152.188 35.825C152.724 35.6103 153.297 35.5 153.875 35.5H153.899C154.623 35.5 155.345 35.3277 155.993 35.0037C156.65 34.6749 157.383 34.5 158.118 34.5H159H160.142C161.027 34.5 161.893 34.7622 162.63 35.2536L162.722 35.3148C162.907 35.438 163.079 35.5791 163.236 35.736C163.733 36.2329 164.373 36.5621 165.066 36.6776L166.384 36.8974C166.794 36.9657 167.209 37 167.624 37H168H168.9C169.629 37 170.352 36.8826 171.043 36.6523C171.347 36.5509 171.644 36.428 171.931 36.2846L173.5 35.5L174.532 34.8117C174.837 34.6084 175.196 34.5 175.562 34.5C175.85 34.5 176.134 34.5671 176.392 34.6959L178 35.5L179.485 36.2424C179.826 36.413 180.138 36.6376 180.407 36.9074C180.797 37.2971 181.272 37.5907 181.795 37.765L182.345 37.9482C182.448 37.9827 182.549 38.0245 182.646 38.0732C183.193 38.3465 183.826 38.3914 184.405 38.1982L185 38L186.656 37.5861C186.885 37.5289 187.106 37.4468 187.317 37.3413L187.351 37.3247C187.778 37.1112 188.249 37 188.726 37C189.542 37 190.324 37.324 190.901 37.9008L191.211 38.2106C191.403 38.4031 191.614 38.576 191.841 38.727L192.25 39C192.745 39.3301 193.17 39.7549 193.5 40.25L193.602 40.4033C193.865 40.7972 194.203 41.1352 194.597 41.3978L195.149 41.7658C195.378 41.9185 195.647 42 195.922 42C196.292 42 196.647 41.8531 196.909 41.5915L197.219 41.2815C197.405 41.0951 197.56 40.8798 197.678 40.6439L197.822 40.3561C197.94 40.1202 198.095 39.9049 198.281 39.7185C198.742 39.2585 199.366 39 200.016 39H201H202.5C203.764 39 204.96 39.5746 205.749 40.5617L206.5 41.5L207.76 43.1802C207.92 43.393 208.06 43.6197 208.179 43.8575L208.585 44.6696C208.851 45.2013 209.317 45.6056 209.881 45.7936L210.31 45.9366C210.434 45.978 210.567 45.9831 210.694 45.9514C211.315 45.7964 211.407 44.9535 210.835 44.6677L210.5 44.5L209.985 44.1566C209.34 43.7263 208.818 43.135 208.471 42.4412C208.161 41.8222 208 41.1397 208 40.4477V40.1232C208 39.3812 207.858 38.6461 207.583 37.9571L207 36.5L206.775 35.5996C206.595 34.8801 206.223 34.223 205.699 33.6985L205.207 33.2071C204.754 32.7544 204.14 32.5 203.5 32.5C202.86 32.5 202.246 32.7544 201.793 33.2071L200.561 34.4393C199.882 35.1185 198.96 35.5 198 35.5C197.04 35.5 196.118 35.1185 195.439 34.4393L194.958 33.9582C194.654 33.6539 194.388 33.3134 194.167 32.9443L193.374 31.6235C193.126 31.2094 192.827 30.8273 192.486 30.4859L192.059 30.059C191.691 29.6914 191.414 29.2432 191.25 28.75C191.086 28.2568 190.809 27.8086 190.441 27.441L190.407 27.4074C190.138 27.1376 189.826 26.913 189.485 26.7424L188.662 26.331C188.227 26.1133 187.747 26 187.26 26H186.191C185.48 26 184.848 25.5449 184.623 24.8701C184.542 24.6267 184.406 24.4056 184.224 24.2242L183.5 23.5L183.35 23.3504C182.881 22.8808 182.119 22.8808 181.65 23.3504C181.266 23.7339 180.673 23.8133 180.202 23.5442L179.148 22.9417C178.153 22.3733 176.912 22.4701 176.018 23.1857L175.851 23.3192C175.3 23.7599 174.616 24 173.91 24H173.75C172.941 24 172.156 23.7246 171.524 23.2191L170 22L167 19.5L165.921 18.6005C164.68 17.5663 163.115 17 161.5 17H159C157.736 17 156.54 17.5746 155.751 18.5617L154.562 20.0478C153.575 21.2817 152.08 22 150.5 22H149.626C147.895 22 146.182 22.3634 144.6 23.0667C143.212 23.6836 141.949 24.5508 140.875 25.6249L138.5 28L137.49 29.2123C136.546 30.345 135.147 31 133.673 31C132.902 31 132.141 31.1796 131.451 31.5245L129.049 32.7256C128.019 33.2404 127.047 33.8626 126.148 34.5817L122.5 37.5L121.468 38.145C119.528 39.3572 117.287 40 115 40H114.009C111.701 40 109.426 40.5372 107.362 41.5691C106.127 42.1867 104.984 42.9734 103.966 43.9066L101.128 46.5081C100.053 47.4935 98.7982 48.2632 97.4327 48.7752L97.1918 48.8656C96.0731 49.2851 94.888 49.5 93.6932 49.5H92.6506C91.2519 49.5 89.8882 49.937 88.75 50.75C87.6118 51.563 86.2481 52 84.8494 52H82H81.1506C79.7519 52 78.3882 51.563 77.25 50.75C76.1118 49.937 74.7481 49.5 73.3494 49.5H70.5C68.5325 49.5 66.5974 50.0014 64.8775 50.9569L63 52L59.4142 54.6893C59.1384 54.8962 58.8777 55.1223 58.6339 55.3661L56.6393 57.3607C56.5501 57.4499 56.4291 57.5 56.303 57.5Z" fill="#CEC19B" stroke="black"/>
<g id="Vector 9">
<path d="M1.92197 48.0954L1.5 40.5L15.5 44L28.5 46.5L38.2516 47.0736C43.0579 47.3563 47.8798 46.9334 52.5635 45.8182C54.8516 45.2734 57.1757 44.8931 59.518 44.6802L60.0569 44.6312C64.6684 44.212 69.2113 43.2308 73.5848 41.7096L90 36L159 1L189.161 19.9583C192.383 21.9834 195.749 23.7694 199.232 25.3019L203.285 27.0853C205.423 28.026 207.651 28.7466 209.935 29.236C212.305 29.7439 214.722 30 217.146 30H219.5H220.192C222.705 30 225.191 29.4897 227.5 28.5L230 27L234.5 24L241.5 20.5L245 19C245.919 18.5406 247 19.2087 247 20.2361V28.5164C247 29.4433 246.537 30.3088 245.766 30.823C245.589 30.9406 245.4 31.0376 245.201 31.1121L241.5 32.5L236.5 35L234.479 36.3472C233.828 36.7815 233.138 37.1552 232.418 37.4636L231.838 37.7122C230.625 38.232 229.32 38.5 228 38.5H227.25C226.439 38.5 225.649 38.2368 225 37.75C224.351 37.2632 223.561 37 222.75 37H222.248C221.431 37 220.63 37.222 219.93 37.6423L219.328 38.0034C218.794 38.3239 218.392 38.8248 218.195 39.4157C218.067 39.7999 217.851 40.1491 217.564 40.4355L216 42L213.064 44.5687C212.465 45.0928 211.563 45.0627 211 44.5L210.464 43.9637C210.155 43.6553 209.878 43.3172 209.636 42.9544C209.215 42.3228 208.906 41.6236 208.722 40.8872L208.611 40.4445C208.537 40.1493 208.5 39.8461 208.5 39.5418V38.7071C208.5 38.2544 208.32 37.8201 208 37.5C207.68 37.1799 207.5 36.7456 207.5 36.2929V35.6514C207.5 35.2267 207.374 34.8114 207.139 34.458L206.693 33.7901C206.573 33.6088 206.369 33.5 206.151 33.5H206C205.724 33.5 205.5 33.2761 205.5 33C205.5 32.7239 205.276 32.5 205 32.5H204H203.707C202.934 32.5 202.193 32.807 201.646 33.3536C201.549 33.4511 201.445 33.5415 201.334 33.6243L200.7 34.1C199.921 34.6842 198.974 35 198 35H197.812C196.992 35 196.227 34.5902 195.772 33.9081C195.592 33.6387 195.361 33.4075 195.092 33.228L194.779 33.0196C194.274 32.6828 193.896 32.1873 193.704 31.6114C193.57 31.2093 193.344 30.844 193.044 30.5443L192.796 30.2955C192.599 30.099 192.422 29.8835 192.268 29.6523L191.5 28.5L190.797 27.4459C190.6 27.1494 190.373 26.8731 190.121 26.621L189.822 26.3221C189.609 26.1087 189.362 25.9312 189.093 25.7963C188.703 25.6014 188.273 25.5 187.837 25.5H187H186.651C185.932 25.5 185.26 25.1405 184.861 24.542L184.7 24.3006C184.57 24.1046 184.5 23.8743 184.5 23.6387C184.5 23.2397 184.301 22.8671 183.969 22.6457L183.351 22.2342C183.122 22.0815 182.853 22 182.578 22H182.516C182.186 22 181.869 22.1313 181.635 22.365C181.256 22.7442 180.676 22.8382 180.197 22.5984L179.493 22.2467C179.169 22.0845 178.811 22 178.448 22H178.25C177.757 22 177.27 22.1148 176.829 22.3354L175.5 23C174.306 23.5972 172.863 23.3631 171.919 22.4189L171.68 22.1795C171.56 22.06 171.432 21.9491 171.297 21.8477L169.5 20.5L168 19.5L166.041 17.9327C165.681 17.645 165.292 17.3962 164.88 17.1902C163.973 16.7363 162.972 16.5 161.957 16.5H161.5H159C157.733 16.5 156.531 17.0629 155.72 18.0364L154.999 18.9012C154.667 19.299 154.291 19.657 153.876 19.9677L152.8 20.7747C152.601 20.9246 152.388 21.0562 152.164 21.1679C151.725 21.3876 151.25 21.5278 150.762 21.582L147 22C145.37 22 143.776 22.4825 142.42 23.3868L142.239 23.5071C141.748 23.8349 141.29 24.2105 140.872 24.6283L139.5 26L137.246 28.2541C137.082 28.4176 136.935 28.5969 136.807 28.7894C136.29 29.5645 135.487 30.1026 134.573 30.2853L133.5 30.5L132 31C129.022 31.9928 126.234 33.4848 123.756 35.4122L123 36L121.858 37.1415C120.973 38.0273 119.844 38.6311 118.616 38.8768C118.206 38.9587 117.79 39 117.372 39H114.077C113.36 39 112.644 39.0509 111.934 39.1523L111.388 39.2303C110.138 39.4089 108.924 39.788 107.794 40.3529C106.935 40.7827 106.131 41.3162 105.401 41.9416L103 44L101.5 45.5L100.731 46.269C99.9157 47.0843 98.9742 47.7629 97.9429 48.2786L97.5885 48.4558C96.8669 48.8166 96.0954 49.0674 95.2996 49.2001L94.4946 49.3342C93.8397 49.4434 93.1688 49.4054 92.5305 49.223L92.1317 49.1091C90.816 48.7331 89.3999 49.1001 88.4324 50.0677C88.146 50.354 87.8153 50.5923 87.4531 50.7734L87.1852 50.9074C86.4058 51.2971 85.5463 51.5 84.6749 51.5H82H80.0523C79.3603 51.5 78.6778 51.3389 78.0588 51.0294L77.5348 50.7674C77.1843 50.5922 76.8857 50.3285 76.6684 50.0025C76.2508 49.3762 75.5479 49 74.7951 49H73H70.5H69.4661C68.8236 49 68.1827 49.0635 67.5526 49.1895C66.5243 49.3951 65.5358 49.7653 64.6253 50.2856L62.5 51.5L61.3007 52.2196C60.4417 52.735 59.6909 53.4121 59.0899 54.2135L58.8634 54.5154C58.6221 54.8372 58.3411 55.1271 58.027 55.3784L56.701 56.4392C56.2639 56.7889 55.6794 56.8931 55.1484 56.7161C54.7332 56.5777 54.2801 56.6099 53.8887 56.8057L53.2504 57.1248C52.7864 57.3568 52.2336 57.3224 51.8019 57.0346C51.3163 56.7109 50.6837 56.7109 50.1981 57.0346L49.9685 57.1877C49.663 57.3913 49.3041 57.5 48.937 57.5H48.2171C47.7455 57.5 47.2804 57.6098 46.8586 57.8207C46.0033 58.2483 44.9967 58.2483 44.1414 57.8207L43.8056 57.6528C43.6023 57.5511 43.4085 57.4314 43.2267 57.295L42.3418 56.6314C41.7882 56.2162 41.3389 55.6778 41.0294 55.0588L40.8767 54.7534C40.6299 54.2597 40.2584 53.8389 39.7991 53.5327C39.278 53.1854 38.6658 53 38.0396 53H36H35.7071C35.2544 53 34.8201 53.1799 34.5 53.5C34.1799 53.8201 33.7456 54 33.2929 54H32.419C32.1405 54 31.8628 53.9695 31.591 53.9091L29.75 53.5C28.2545 53.1677 26.7271 53 25.1951 53H24.5C22.8414 53 21.1909 52.7688 19.5962 52.3132L15 51L12.1872 50.5982C11.7296 50.5328 11.268 50.5 10.8058 50.5H10.1771C9.07417 50.5 7.98644 50.2432 7 49.75L6.56011 49.5301C5.86295 49.1815 5.09421 49 4.31476 49H3.67437C3.55888 49 3.44414 49.0186 3.33458 49.0551C2.66245 49.2792 1.96127 48.8028 1.92197 48.0954Z" fill="#F6E8B9"/>
<path d="M1 31.5L1.5 40.5M1.5 40.5L1.92197 48.0954C1.96127 48.8028 2.66245 49.2792 3.33458 49.0551V49.0551C3.44414 49.0186 3.55888 49 3.67437 49H4.31476C5.09421 49 5.86295 49.1815 6.56011 49.5301L7 49.75C7.98644 50.2432 9.07417 50.5 10.1771 50.5H10.8058C11.268 50.5 11.7296 50.5328 12.1872 50.5982L15 51L19.5962 52.3132C21.1909 52.7688 22.8414 53 24.5 53V53H25.1951C26.7271 53 28.2545 53.1677 29.75 53.5L31.591 53.9091C31.8628 53.9695 32.1405 54 32.419 54H33.2929C33.7456 54 34.1799 53.8201 34.5 53.5V53.5C34.8201 53.1799 35.2544 53 35.7071 53H36H38.0396C38.6658 53 39.278 53.1854 39.7991 53.5327V53.5327C40.2584 53.8389 40.6299 54.2597 40.8767 54.7534L41.0294 55.0588C41.3389 55.6778 41.7882 56.2162 42.3418 56.6314L43.2267 57.295C43.4085 57.4314 43.6023 57.5511 43.8056 57.6528L44.1414 57.8207C44.9967 58.2483 46.0033 58.2483 46.8586 57.8207V57.8207C47.2804 57.6098 47.7455 57.5 48.2171 57.5H48.937C49.3041 57.5 49.663 57.3913 49.9685 57.1877L50.1981 57.0346C50.6837 56.7109 51.3163 56.7109 51.8019 57.0346V57.0346C52.2336 57.3224 52.7864 57.3568 53.2504 57.1248L53.8887 56.8057C54.2801 56.6099 54.7332 56.5777 55.1484 56.7161V56.7161C55.6794 56.8931 56.2639 56.7889 56.701 56.4392L58.027 55.3784C58.3411 55.1271 58.6221 54.8372 58.8635 54.5154L59.0899 54.2135C59.6909 53.4121 60.4417 52.735 61.3007 52.2196L62.5 51.5L64.6253 50.2856C65.5358 49.7653 66.5243 49.3951 67.5526 49.1895V49.1895C68.1827 49.0635 68.8236 49 69.4661 49H70.5H73H74.7951C75.5479 49 76.2508 49.3762 76.6684 50.0025V50.0025C76.8857 50.3285 77.1843 50.5922 77.5348 50.7674L78.0588 51.0294C78.6778 51.3389 79.3603 51.5 80.0523 51.5H82H84.6749C85.5463 51.5 86.4058 51.2971 87.1852 50.9074L87.4531 50.7734C87.8153 50.5923 88.146 50.354 88.4323 50.0677V50.0677C89.3999 49.1001 90.816 48.7331 92.1317 49.1091L92.5305 49.223C93.1688 49.4054 93.8397 49.4434 94.4946 49.3342L95.2996 49.2001C96.0954 49.0674 96.8669 48.8166 97.5885 48.4558L97.9429 48.2786C98.9742 47.7629 99.9157 47.0843 100.731 46.269L101.5 45.5L103 44L105.401 41.9416C106.131 41.3162 106.935 40.7827 107.794 40.3529V40.3529C108.924 39.788 110.138 39.4089 111.388 39.2303L111.934 39.1523C112.644 39.0509 113.36 39 114.077 39H117.372C117.79 39 118.206 38.9587 118.616 38.8768V38.8768C119.845 38.6311 120.973 38.0273 121.858 37.1415L123 36L123.756 35.4122C126.234 33.4848 129.022 31.9928 132 31V31L133.5 30.5L134.573 30.2853C135.487 30.1026 136.29 29.5645 136.807 28.7894V28.7894C136.935 28.5969 137.082 28.4176 137.246 28.2541L139.5 26L140.872 24.6283C141.29 24.2105 141.748 23.8349 142.239 23.5071L142.42 23.3868C143.776 22.4825 145.37 22 147 22V22L150.762 21.582C151.25 21.5278 151.725 21.3876 152.164 21.1679V21.1679C152.388 21.0562 152.601 20.9246 152.8 20.7747L153.876 19.9677C154.291 19.657 154.667 19.299 154.999 18.9012L155.72 18.0364C156.531 17.0629 157.733 16.5 159 16.5V16.5M1.5 40.5L15.5 44L28.5 46.5L38.2516 47.0736C43.0579 47.3563 47.8798 46.9334 52.5635 45.8182V45.8182C54.8516 45.2734 57.1757 44.8931 59.518 44.6802L60.0569 44.6312C64.6684 44.212 69.2113 43.2308 73.5848 41.7096L90 36L159 1M159 1V16.5M159 1L189.161 19.9583C192.383 21.9834 195.749 23.7694 199.232 25.3019L203.285 27.0853C205.423 28.026 207.651 28.7466 209.935 29.236V29.236C212.305 29.7439 214.722 30 217.146 30H219.5H220.192C222.705 30 225.191 29.4897 227.5 28.5V28.5L230 27L234.5 24L241.5 20.5L245 19V19C245.919 18.5406 247 19.2087 247 20.2361V28.5164C247 29.4433 246.537 30.3088 245.766 30.823V30.823C245.589 30.9406 245.4 31.0376 245.201 31.1121L241.5 32.5L236.5 35L234.479 36.3472C233.828 36.7815 233.138 37.1552 232.418 37.4636L231.838 37.7122C230.625 38.232 229.32 38.5 228 38.5V38.5H227.25C226.439 38.5 225.649 38.2368 225 37.75V37.75C224.351 37.2632 223.561 37 222.75 37H222.248C221.431 37 220.63 37.222 219.93 37.6422L219.328 38.0034C218.794 38.3239 218.392 38.8248 218.195 39.4157V39.4157C218.067 39.7999 217.851 40.1491 217.564 40.4355L216 42L213.064 44.5687C212.465 45.0928 211.563 45.0627 211 44.5V44.5L210.464 43.9637C210.155 43.6553 209.878 43.3172 209.636 42.9544V42.9544C209.215 42.3228 208.906 41.6236 208.722 40.8872L208.611 40.4445C208.537 40.1493 208.5 39.8461 208.5 39.5418V38.7071C208.5 38.2544 208.32 37.8201 208 37.5V37.5C207.68 37.1799 207.5 36.7456 207.5 36.2929V35.6514C207.5 35.2267 207.374 34.8114 207.139 34.458L206.693 33.7901C206.573 33.6088 206.369 33.5 206.151 33.5H206C205.724 33.5 205.5 33.2761 205.5 33V33C205.5 32.7239 205.276 32.5 205 32.5H204H203.707C202.934 32.5 202.193 32.807 201.646 33.3536V33.3536C201.549 33.4511 201.445 33.5415 201.334 33.6243L200.7 34.1C199.921 34.6842 198.974 35 198 35V35H197.812C196.992 35 196.227 34.5902 195.772 33.9081V33.9081C195.592 33.6387 195.361 33.4075 195.092 33.228L194.779 33.0196C194.274 32.6828 193.896 32.1873 193.704 31.6114V31.6114C193.57 31.2093 193.344 30.844 193.044 30.5443L192.796 30.2955C192.599 30.099 192.422 29.8835 192.268 29.6523L191.5 28.5L190.797 27.4459C190.6 27.1494 190.373 26.8731 190.121 26.621L189.822 26.3221C189.609 26.1087 189.362 25.9312 189.093 25.7963V25.7963C188.703 25.6014 188.273 25.5 187.837 25.5H187H186.651C185.932 25.5 185.26 25.1405 184.861 24.542L184.7 24.3006C184.57 24.1046 184.5 23.8743 184.5 23.6387V23.6387C184.5 23.2397 184.301 22.8671 183.969 22.6457L183.351 22.2342C183.122 22.0815 182.853 22 182.578 22H182.516C182.186 22 181.869 22.1313 181.635 22.365V22.365C181.256 22.7442 180.676 22.8382 180.197 22.5984L179.493 22.2467C179.169 22.0845 178.811 22 178.448 22H178.25C177.757 22 177.27 22.1148 176.829 22.3354L175.5 23V23C174.306 23.5972 172.863 23.3631 171.919 22.4189L171.68 22.1795C171.56 22.06 171.432 21.9491 171.297 21.8477L169.5 20.5L168 19.5L166.041 17.9327C165.681 17.645 165.292 17.3962 164.88 17.1902V17.1902C163.973 16.7363 162.972 16.5 161.957 16.5H161.5H159" stroke="black"/>
</g>
</g>
</svg>
