<svg width="247" height="39" viewBox="0 0 247 39" fill="none" xmlns="http://www.w3.org/2000/svg">
<g id="Stratum Basale">
<path id="Stratum Basale_2" d="M6 24.5L2.23186 23.3696C1.50071 23.1502 1 22.4772 1 21.7139C1 20.5893 2.05682 19.7642 3.1478 20.0369L5 20.5L6.47238 20.9908C7.48417 21.3281 8.54373 21.5 9.61026 21.5C10.5323 21.5 11.4498 21.6285 12.3363 21.8818L14.5 22.5L18.3724 23.6915C20.1143 24.2275 21.9267 24.5 23.7492 24.5H23.9384C25.3076 24.5 26.6717 24.6679 28 25L28.7873 25.1968C29.5927 25.3982 30.4198 25.5 31.25 25.5C32.0802 25.5 32.9073 25.3982 33.7127 25.1968L35.9767 24.6308C36.3242 24.5439 36.6812 24.5 37.0394 24.5H37.5C38.1491 24.5 38.7807 24.7105 39.3 25.1L39.9 25.55C40.2777 25.8333 40.5 26.2779 40.5 26.75C40.5 27.2221 40.7223 27.6667 41.1 27.95L42.5 29L43.2371 29.4914C43.7346 29.823 44.319 30 44.9168 30C45.3021 30 45.6838 29.9265 46.0415 29.7834L47.6256 29.1498C47.8726 29.0509 48.097 28.903 48.2851 28.7149C48.7337 28.2663 49.3714 28.0619 49.9972 28.1662L51.3564 28.3927C51.767 28.4612 52.131 28.6965 52.3619 29.0429C52.7386 29.608 53.447 29.851 54.0913 29.6362L54.5 29.5L57.5906 28.341C58.1899 28.1163 58.7342 27.7658 59.1868 27.3132C60.0276 26.4724 61.1681 26 62.3572 26H63.3318C64.1026 26 64.8653 25.8434 65.5738 25.5398C67.1125 24.8803 68.8636 24.9318 70.361 25.6805L71 26C73.321 26.9947 75.4854 28.3211 77.4253 29.9377L77.5 30L78.3983 30.7187C79.4352 31.5481 80.7234 32 82.0511 32C82.6796 32 83.304 31.8987 83.9002 31.6999L85.0359 31.3214C85.6608 31.1131 86.1984 30.7025 86.5637 30.1545C86.8496 29.7256 87.2425 29.3788 87.7035 29.1482L89.3721 28.3139C89.7898 28.1051 90.226 27.9354 90.675 27.8071L92.3289 27.3346C93.0822 27.1194 93.8887 27.1943 94.5893 27.5447C95.1812 27.8406 95.8516 27.9414 96.5043 27.8326L98.2088 27.5485C98.4026 27.5162 98.5987 27.5 98.7952 27.5C100.146 27.5 101.382 26.7366 101.986 25.528L102.107 25.2866C102.366 24.7684 102.734 24.3126 103.187 23.9506L104.139 23.1888C104.703 22.7373 105.141 22.1473 105.409 21.4763L105.744 20.6404C105.909 20.2279 106.22 19.8902 106.617 19.6915C106.869 19.5656 107.147 19.5 107.428 19.5H110.5H111.121C111.704 19.5 112.284 19.5813 112.845 19.7415L114.606 20.2446C115.176 20.4073 115.651 20.8017 115.916 21.3316C116.274 22.0477 117.006 22.5 117.806 22.5H119.5H120.293C121.066 22.5 121.807 22.193 122.354 21.6464C122.451 21.5489 122.542 21.4446 122.624 21.3343L123.848 19.7031C123.949 19.5679 124.06 19.44 124.18 19.3205L124.809 18.691C125.52 17.9798 126.607 17.8034 127.507 18.2533C127.831 18.4155 128.189 18.5 128.552 18.5H129.697C130.558 18.5 131.411 18.3357 132.21 18.0159C133.061 17.6755 133.834 17.1658 134.482 16.5177L135.5 15.5L137.171 13.4111C137.39 13.1381 137.641 12.8939 137.921 12.6842C138.92 11.935 140.203 11.6758 141.415 11.9787L143.5 12.5L144.328 12.6656C145.432 12.8863 146.568 12.8863 147.672 12.6656C148.223 12.5555 148.783 12.5 149.344 12.5H150.5C151.46 12.5 152.382 12.1185 153.061 11.4393L153.437 11.063C153.81 10.6901 154.121 10.2583 154.357 9.7866C154.776 8.94782 155.427 8.24373 156.231 7.76124L156.84 7.39576C157.278 7.13336 157.751 6.93713 158.246 6.81344C159.069 6.60765 159.931 6.60765 160.754 6.81344L160.89 6.84744C161.295 6.94884 161.689 7.09433 162.063 7.2813L163.5 8L164.895 8.69757C165.297 8.89859 165.72 9.055 166.156 9.16402C167.041 9.38524 167.964 9.40721 168.858 9.22832L169.275 9.14496C169.757 9.04852 170.23 8.90811 170.686 8.72548L171.938 8.22464C172.309 8.07642 172.646 7.85449 172.928 7.57231C173.601 6.89937 174.557 6.59285 175.496 6.74931L176.634 6.93905C176.877 6.97957 177.115 7.04616 177.344 7.13768L179.069 7.82752C179.329 7.93169 179.5 8.18393 179.5 8.46442C179.5 8.77918 179.714 9.05356 180.02 9.1299L181.228 9.4319C181.409 9.47713 181.594 9.5 181.781 9.5H182.608C183.201 9.5 183.793 9.44143 184.374 9.32515L186 9L186.734 8.81661C187.561 8.60983 188.43 8.6432 189.238 8.91281L189.311 8.93691C190.392 9.29745 191.286 10.0729 191.796 11.0927C191.932 11.3635 192.095 11.6192 192.285 11.8556L193.426 13.283C193.789 13.7362 194.338 14 194.918 14C195.589 14 196.211 13.6479 196.557 13.0724L197.105 12.1588C197.365 11.725 197.718 11.3544 198.139 11.0738C198.701 10.6997 199.36 10.5 200.034 10.5H200.222C200.736 10.5 201.245 10.598 201.722 10.7888L202.21 10.9841C203.061 11.3245 203.834 11.8342 204.482 12.4823L204.5 12.5L206.5 15L207.039 15.8086C207.341 16.2617 207.756 16.6281 208.243 16.8716C209.043 17.2713 209.975 17.3101 210.805 16.9782L211.075 16.8699C211.681 16.6274 212.214 16.232 212.622 15.7222L213.454 14.6827C213.816 14.2294 214.235 13.8237 214.699 13.4754L214.972 13.2709C215.648 12.7639 216.197 12.1066 216.575 11.3508C217.171 10.1586 218.184 9.22654 219.421 8.73149L220 8.5C220.966 8.17791 222.017 8.22162 222.953 8.62284L225 9.5L225.234 9.57805C226.99 10.1632 228.913 9.95206 230.5 9L235 7L237.418 5.48904C238.471 4.83065 239.573 4.25424 240.715 3.7649L242.151 3.14953C242.383 3.05 242.623 2.96921 242.868 2.90794L244.291 2.55224C244.426 2.51845 244.546 2.43915 244.629 2.32768C245.003 1.82995 245.794 2.1496 245.717 2.76695L245.5 4.5V6.23241C245.5 6.65634 245.156 7 244.732 7C244.581 7 244.433 7.04486 244.307 7.12892L243 8C242.003 8.66447 240.934 9.21239 239.812 9.633L239.144 9.88337C238.05 10.2938 236.99 10.7914 235.975 11.3713L234 12.5L230.5 14L228.859 14.9846C228.297 15.3218 227.654 15.5 226.998 15.5C226.039 15.5 225.119 15.1189 224.441 14.4406L224.199 14.199C224.067 14.0667 223.948 13.9216 223.844 13.7658L223.416 13.124C223.156 12.7342 222.719 12.5 222.25 12.5C221.781 12.5 221.344 12.7342 221.084 13.124L220.656 13.7658C220.552 13.9216 220.433 14.0667 220.301 14.199L219.627 14.8733C219.209 15.2906 218.822 15.737 218.468 16.2091L217.5 17.5L217.342 17.7111C216.449 18.9013 215.665 20.1694 215 21.5L214.426 22.6479C214.149 23.201 213.701 23.6495 213.148 23.926C212.418 24.2911 211.566 24.3265 210.808 24.0234L209.5 23.5C208.175 22.8377 206.966 21.9661 205.919 20.9189L204.5 19.5L202.686 17.6858C202.562 17.5622 202.427 17.4512 202.281 17.3542C201.489 16.826 200.474 16.7628 199.623 17.1887L199 17.5L197.775 18.3169C196.655 19.0634 195.252 19.2505 193.975 18.825C193.334 18.6114 192.751 18.2514 192.274 17.774L191.387 16.8871C191.139 16.6392 191 16.3031 191 15.9526C191 15.3837 190.636 14.8787 190.096 14.6988L189.095 14.365C188.394 14.1313 187.629 14.1857 186.968 14.5161L186 15L185.147 15.5119C184.121 16.1273 182.852 16.176 181.782 15.6411C181.594 15.5472 181.416 15.4366 181.248 15.3107L180.377 14.6578C179.795 14.2212 179.158 13.8631 178.482 13.5928L178.083 13.4332C177.368 13.147 176.604 13 175.834 13H174.901C174.314 13 173.739 13.174 173.25 13.5C172.761 13.826 172.186 14 171.599 14H170H167.5H167.468C166.19 14 164.948 13.5857 163.926 12.8194L163.773 12.705C163.591 12.5686 163.398 12.4489 163.194 12.3472C162.128 11.8139 160.872 11.8139 159.806 12.3472C159.602 12.4489 159.409 12.5686 159.227 12.705L158.382 13.3389C157.795 13.7791 157.24 14.2604 156.721 14.7792L155.628 15.8717C155.21 16.2895 154.752 16.6651 154.261 16.9929L153.354 17.5971C152.471 18.1859 151.434 18.5 150.372 18.5C149.795 18.5 149.221 18.4069 148.672 18.2241L146.5 17.5L143.764 16.588C143.588 16.5294 143.417 16.4584 143.251 16.3756L143.01 16.255C142.059 15.7797 140.941 15.7797 139.99 16.255C139.665 16.4173 139.369 16.6308 139.113 16.8874L137.5 18.5L135.898 20.1019C135.633 20.3667 135.395 20.6569 135.188 20.9684L134.564 21.9039C133.899 22.901 132.78 23.5 131.582 23.5C131.196 23.5 130.814 23.4379 130.448 23.3161L130.313 23.2709C128.895 22.7984 127.333 23.1673 126.276 24.2238C126.093 24.4075 125.927 24.6089 125.783 24.825L124.227 27.1595C124.076 27.3859 123.903 27.5969 123.711 27.7894L123.284 28.2164C122.782 28.7181 122.101 29 121.392 29C120.813 29 120.25 28.8122 119.787 28.4649L118.926 27.8194C118.643 27.6069 118.341 27.4203 118.024 27.262L115.5 26L113.973 25.0837C113.336 24.7018 112.608 24.5 111.865 24.5C110.979 24.5 110.117 24.7875 109.408 25.3192L108.851 25.7364C108.617 25.9119 108.396 26.1038 108.189 26.3107L107 27.5L105 30C104.056 31.259 102.574 32 101 32H98.5C96.1907 32 93.9055 32.4691 91.783 33.3787L91.5 33.5L89 34.5L87.3416 35.3292C86.4593 35.7703 85.4864 36 84.5 36C83.5136 36 82.5407 35.7703 81.6584 35.3292L80 34.5L77.5 33.5L74.5 32L72.7365 30.9923C71.5985 30.342 70.3106 30 69 30H68.2361C66.7656 30 65.3153 30.3424 64 31L62.6708 31.6646C62.2297 31.8852 61.7432 32 61.25 32C60.7568 32 60.2703 32.1148 59.8292 32.3354L58.3982 33.0509C57.8064 33.3468 57.286 33.7675 56.8727 34.2841L56.3907 34.8866C55.8277 35.5903 54.9754 36 54.0741 36C53.3801 36 52.708 35.7567 52.1748 35.3124L50.9802 34.3168C50.425 33.8542 49.6088 33.8912 49.0978 34.4022C49.0328 34.4672 48.9743 34.5386 48.9233 34.6151L48.8439 34.7342C48.3167 35.525 47.4291 36 46.4787 36H45.5H45.2548C43.5136 36 41.8668 35.2085 40.7791 33.8489C40.5933 33.6167 40.4259 33.3703 40.2783 33.1121L39.4256 31.6198C38.8295 30.5767 37.8699 29.79 36.7302 29.4101C35.924 29.1413 35.0617 29.0877 34.2285 29.2543L32.591 29.5818C31.2095 29.8581 29.7881 29.8706 28.402 29.6185L25 29L18.5 27.5L11 26L6 24.5Z" fill="white" stroke="black"/>
<g id="Vector 4">
<path d="M106.5 31.5L102 33C103.329 32.0034 104.537 30.8555 105.6 29.5794L106.5 28.5L108.356 26.6441C108.783 26.2175 109.283 25.8585 109.823 25.5887C110.589 25.2053 111.446 25 112.304 25H113.229C113.408 25 113.584 25.0382 113.746 25.112L117.634 26.8793C117.953 27.0239 117.849 27.5 117.5 27.5C115.866 27.5 114.265 27.9591 112.88 28.825L112.173 29.267C111.394 29.7539 110.56 30.1468 109.688 30.4374L106.5 31.5Z" fill="#D9D9D9"/>
<path d="M128 26L126.781 26.5225C125.939 26.8832 125.082 26.0462 125.422 25.1959C125.473 25.0666 125.551 24.9492 125.649 24.8508L125.997 24.503C126.639 23.8608 127.51 23.5 128.418 23.5H129L133.223 23.3758C133.241 23.3753 133.259 23.3729 133.276 23.3688C133.605 23.2923 133.75 23.7637 133.436 23.8858L128 26Z" fill="#D9D9D9"/>
<path d="M146.544 22.6079L134.914 23.921C134.145 24.0078 133.769 23.0118 134.402 22.5683C134.467 22.5231 134.524 22.4678 134.571 22.4047L135.538 21.1161C135.846 20.7059 136.182 20.318 136.545 19.9554L137 19.5L138.354 18.1457C138.78 17.7197 139.288 17.3846 139.848 17.1609C140.908 16.7366 142.092 16.7366 143.152 17.1609L144 17.5L146.426 18.1931C147.138 18.3967 147.876 18.5 148.617 18.5C149.855 18.5 151.077 18.2117 152.184 17.6579L153.18 17.1598C154.054 16.7228 154.852 16.1478 155.543 15.4568C155.847 15.1527 156.173 14.8705 156.517 14.6124L157.506 13.8708C157.835 13.6241 158.185 13.4075 158.553 13.2236L158.658 13.1708C159.541 12.7297 160.514 12.5 161.5 12.5C162.482 12.5 163.445 12.7668 164.286 13.2717L164.626 13.4758C165.206 13.8233 165.833 14.0833 166.488 14.2471L166.595 14.2736C167.196 14.424 167.813 14.5 168.433 14.5H170.382C171.117 14.5 171.842 14.3288 172.5 14C173.158 13.6712 173.883 13.5 174.618 13.5H175C176.623 13.5 178.202 14.0263 179.5 15L181.243 16.046C181.738 16.3431 182.305 16.5 182.882 16.5C183.606 16.5 184.308 16.2538 184.873 15.8019L185.719 15.1247C186.225 14.7203 186.853 14.5 187.5 14.5C188.147 14.5 188.775 14.7203 189.281 15.1247L190.658 16.2267C190.874 16.3994 191 16.661 191 16.9375C191 17.2822 191.195 17.5974 191.503 17.7516L193 18.5L194.553 19.2764C194.847 19.4234 195.171 19.5 195.5 19.5C195.829 19.5 196.153 19.4234 196.447 19.2764L198 18.5L199.351 17.8247C199.778 17.6112 200.249 17.5 200.726 17.5H200.793C201.566 17.5 202.307 17.807 202.854 18.3536C202.951 18.4511 203.042 18.5554 203.124 18.6657L203.983 19.8109C204.327 20.2697 204.704 20.7036 205.109 21.1091L206.383 22.3833C206.461 22.4606 206.55 22.5249 206.648 22.5738L209.639 24.0693C209.853 24.1766 209.777 24.5 209.537 24.5C209.512 24.5 209.488 24.4961 209.465 24.4883L206.5 23.5L202.818 22.6818C202.274 22.561 201.719 22.5 201.162 22.5H198.828C198.298 22.5 197.789 22.2893 197.414 21.9142L197.222 21.7218C196.547 21.047 195.453 21.047 194.778 21.7218C194.303 22.1966 193.597 22.3534 192.966 22.1239L189.692 20.9334C188.903 20.6467 188.071 20.5 187.232 20.5H182H173.5H166.5H163.516C162.195 20.5 160.897 20.8447 159.75 21.5C158.603 22.1553 157.305 22.5 155.984 22.5H153.957C153.321 22.5 152.688 22.5779 152.072 22.7321L150.685 23.0788C149.917 23.2708 149.107 23.2029 148.381 22.8855C147.804 22.633 147.17 22.5372 146.544 22.6079Z" fill="#D9D9D9"/>
<path d="M45.5 36L51.0363 36.346C52.6745 36.4484 54.298 36.7176 55.8815 37.1495V37.1495C57.9513 37.714 60.087 38 62.2324 38H64H66.7179C68.5576 38 70.3824 37.6691 72.1049 37.0232V37.0232C73.0328 36.6752 73.9922 36.418 74.9697 36.2551L78.7069 35.6322C79.2347 35.5442 79.7689 35.5 80.304 35.5H80.3631C81.1182 35.5 81.8704 35.5926 82.6029 35.7757V35.7757C84.4863 36.2466 86.4702 36.1119 88.2726 35.3909L90.5 34.5V34.5C92.4729 33.5136 94.6483 33 96.8541 33H97.5H102M102 33L106.5 31.5L109.688 30.4374C110.56 30.1468 111.394 29.7539 112.173 29.267L112.88 28.825C114.265 27.9591 115.866 27.5 117.5 27.5V27.5V27.5C117.849 27.5 117.953 27.0239 117.634 26.8793L113.746 25.112C113.584 25.0382 113.408 25 113.229 25H112.304C111.446 25 110.589 25.2053 109.823 25.5887V25.5887C109.283 25.8585 108.783 26.2175 108.356 26.6441L106.5 28.5L105.6 29.5794C104.537 30.8555 103.329 32.0034 102 33V33ZM128 26L126.781 26.5225C125.939 26.8832 125.082 26.0462 125.422 25.1959V25.1959C125.473 25.0666 125.551 24.9492 125.649 24.8508L125.997 24.503C126.639 23.8608 127.51 23.5 128.418 23.5H129L133.223 23.3758C133.241 23.3753 133.259 23.3729 133.276 23.3688V23.3688C133.605 23.2923 133.75 23.7637 133.436 23.8858L128 26ZM166.5 20.5H163.516C162.195 20.5 160.897 20.8447 159.75 21.5V21.5C158.603 22.1553 157.305 22.5 155.984 22.5H153.957C153.321 22.5 152.688 22.5779 152.072 22.7321L150.685 23.0788C149.917 23.2708 149.107 23.2029 148.381 22.8855V22.8855C147.804 22.633 147.17 22.5372 146.544 22.6079L134.914 23.921C134.145 24.0078 133.769 23.0118 134.402 22.5683V22.5683C134.467 22.5231 134.524 22.4678 134.571 22.4047L135.538 21.1161C135.846 20.7059 136.182 20.318 136.545 19.9554L137 19.5L138.354 18.1457C138.78 17.7197 139.288 17.3846 139.848 17.1609V17.1609C140.908 16.7366 142.092 16.7366 143.152 17.1609L144 17.5L146.426 18.1931C147.138 18.3967 147.876 18.5 148.617 18.5V18.5C149.855 18.5 151.077 18.2117 152.184 17.6579L153.18 17.1598C154.054 16.7228 154.852 16.1478 155.543 15.4568V15.4568C155.847 15.1527 156.173 14.8705 156.517 14.6124L157.506 13.8708C157.835 13.6241 158.185 13.4075 158.553 13.2236L158.658 13.1708C159.541 12.7297 160.514 12.5 161.5 12.5V12.5V12.5C162.482 12.5 163.445 12.7668 164.286 13.2717L164.626 13.4758C165.206 13.8233 165.833 14.0833 166.488 14.2471L166.595 14.2736C167.196 14.424 167.813 14.5 168.433 14.5H170.382C171.117 14.5 171.842 14.3288 172.5 14V14C173.158 13.6712 173.883 13.5 174.618 13.5H175V13.5C176.623 13.5 178.202 14.0263 179.5 15V15L181.243 16.046C181.738 16.3431 182.305 16.5 182.882 16.5V16.5C183.606 16.5 184.308 16.2538 184.873 15.8019L185.719 15.1247C186.225 14.7203 186.853 14.5 187.5 14.5V14.5C188.147 14.5 188.775 14.7203 189.281 15.1247L190.658 16.2267C190.874 16.3994 191 16.661 191 16.9375V16.9375C191 17.2822 191.195 17.5974 191.503 17.7516L193 18.5L194.553 19.2764C194.847 19.4234 195.171 19.5 195.5 19.5V19.5C195.829 19.5 196.153 19.4234 196.447 19.2764L198 18.5L199.351 17.8247C199.778 17.6112 200.249 17.5 200.726 17.5H200.793C201.566 17.5 202.307 17.807 202.854 18.3536V18.3536C202.951 18.4511 203.042 18.5554 203.124 18.6657L203.983 19.8109C204.327 20.2697 204.704 20.7036 205.109 21.1091L206.383 22.3833C206.461 22.4606 206.55 22.5249 206.648 22.5738L209.639 24.0693C209.853 24.1766 209.777 24.5 209.537 24.5V24.5C209.512 24.5 209.488 24.4961 209.465 24.4883L206.5 23.5L202.818 22.6818C202.274 22.561 201.719 22.5 201.162 22.5H198.828C198.298 22.5 197.789 22.2893 197.414 21.9142L197.222 21.7218C196.547 21.047 195.453 21.047 194.778 21.7218V21.7218C194.303 22.1966 193.597 22.3534 192.966 22.1239L189.692 20.9334C188.903 20.6467 188.071 20.5 187.232 20.5H182H173.5H166.5Z" stroke="black"/>
</g>
</g>
</svg>
