<svg width="270" height="129" viewBox="0 0 270 129" fill="none" xmlns="http://www.w3.org/2000/svg">
<g id="Subcutaneous Fatty Tissue (Hypodermis)">
<g id="Vector 1">
<path d="M158.529 76.3214L155.332 77.745L153.001 79.2993L152.034 81.4024L150.683 81.6494L150.17 103.031L149.87 109.732L150.683 111.559L150 113.5L149.473 123.592L149.397 126.5L150.683 128L175.402 104.385L175.246 104.286L179.129 100.536L191.187 88.2082L194.572 84.7474L202.471 76.6723L210.369 68.5972L221.277 57.4458L229.175 49.3707L236.5 41.5L236.5 27L236.5 1.10501L235.748 1.43984L234.834 1.84658L233.921 2.25332L232.551 2.86342L231.18 3.47353L230.78 5.5L230.117 7.231L228.293 9.28085L226.666 9.31472L223.925 10.5349L223.418 11.8552L222.455 13.3789L221.238 15.5627L220.731 16.8829L219.564 17.9498L217.33 17.8497L214.59 19.07L212.509 20.5436L212.409 22.7774L210.989 24.5044L207.614 26.7415L206.067 29.4321L204.597 32.276L203.177 34.003L202.238 34.9682L201.3 35.9334L199.016 36.9502L195.838 38.5L193.434 41.6245L188.463 47.6691L188.006 47.8724L185.519 48.4325L183.032 48.9926L180.648 52.2432L178.871 51.9398L178.364 53.2601L174.479 55.7812L171.645 57.5115L168.572 61.9985L167.151 63.7255L167.255 66.4161L166.291 67.9397L163.297 69.8201L160.353 70.5835L159.086 73.8842L158.529 76.3214Z" fill="#EC9C47"/>
<path d="M149.87 109.732L153.881 110.136L156.621 108.915L158.548 105.868L160.832 104.851M149.87 109.732L150.683 111.559L150 113.5M149.87 109.732L150.17 103.031M160.832 104.851L159.972 109.065L160.279 112.213L162.819 115.46L160.585 115.36L156.931 116.987L155.968 118.511L154.954 121.151L155.767 122.978L152.213 122.372M160.832 104.851L161.601 104.12L165.256 102.493L166.314 102.411M160.832 104.851L160.426 103.938L159.409 101.654M152.213 122.372L149.473 123.592M152.213 122.372L152.467 121.711L152.313 120.138L154.141 119.324L155.814 116.937L154.951 116.227L154.137 114.4L151.04 113.59L150 113.5M149.473 123.592L150 113.5M149.473 123.592L149.397 126.5L150.683 128M152.034 81.4024L152.391 83.4329L153.001 84.8032L155.692 84.6999L157.469 85.0033M152.034 81.4024L150.683 81.6494L150.17 103.031M152.034 81.4024L153.001 79.2993L155.332 77.745L158.529 76.3214M158.529 76.3214L159.086 73.8842L160.353 70.5835L163.297 69.8201L166.291 67.9397L167.255 66.4161M158.529 76.3214L159.749 79.0621M167.255 66.4161L167.151 63.7255L168.572 61.9985M167.255 66.4161L167.408 67.9898L168.221 69.8169L169.238 72.1007L171.142 72.0741M168.572 61.9985L172.533 63.5189L175.273 62.2987M168.572 61.9985L171.645 57.5115L174.479 55.7812L178.364 53.2601M175.273 62.2987L176.49 60.1149L177.707 57.9311L178.164 57.7277L178.974 54.6304L178.364 53.2601M175.273 62.2987L176.39 62.3487L178.727 65.1394M178.364 53.2601L178.871 51.9398L180.648 52.2432M180.648 52.2432L183.032 48.9926M180.648 52.2432L181.258 53.6136L182.275 55.8974L184.865 58.028L187.303 58.5848M183.032 48.9926L185.519 48.4325M183.032 48.9926L183.235 49.4493L184.352 49.4994L184.809 49.296L185.519 48.4325M185.266 49.0926L188.006 47.8724M188.006 47.8724L188.463 47.6691M188.006 47.8724L185.519 48.4325M190.747 46.6522L192.674 43.6049M190.747 46.6522L194.708 48.1726L194.658 49.2896L194.151 50.6098L193.694 50.8132M190.747 46.6522L193.694 50.8132M192.674 43.6049L188.463 47.6691M192.674 43.6049L196.228 44.2118L199.376 43.9051L202.166 41.568M188.463 47.6691L193.434 41.6245L195.838 38.5L199.016 36.9502L201.3 35.9334L202.238 34.9682M206.067 29.4321L204.597 32.276L203.177 34.003L202.238 34.9682M206.067 29.4321L206.678 30.8024L207.288 32.1727L209.978 32.0694L213.126 31.7627M206.067 29.4321L207.614 26.7415L210.989 24.5044M210.989 24.5044L212.409 22.7774L212.509 20.5436L214.59 19.07L217.33 17.8497L219.564 17.9498L220.731 16.8829M210.989 24.5044L212.309 25.0112L214.746 25.5681L216.193 25.7448M220.731 16.8829L221.238 15.5627L222.455 13.3789L223.418 11.8552L223.925 10.5349L226.666 9.31472L228.293 9.28085M220.731 16.8829L222.458 18.3033L224.845 19.9771L225.962 20.0271M228.293 9.28085L230.117 7.231L230.78 5.5L231.18 3.47353L232.551 2.86342L233.921 2.25332L234.834 1.84658L235.748 1.43984L236.5 1.10501M228.293 9.28085L229.51 10.7851L230.78 12.4088L231.593 14.2359M236.736 1L236.5 1.10501M236.061 14.4361L233.777 15.4529L231.593 14.2359M231.593 14.2359L232.357 17.1799L231.9 17.3833L230.733 18.4502M230.733 18.4502L228.449 19.467M230.733 18.4502L234.19 26.2153M228.449 19.467L227.079 20.0771L225.962 20.0271M228.449 19.467L230.203 22.7911M225.962 20.0271L225.862 22.2609M225.862 22.2609L225.102 24.2413L223.225 26.1717M225.862 22.2609L229.213 22.411L230.203 22.7911M223.225 26.1717L220.077 26.4784L217.64 25.9215L216.193 25.7448M223.225 26.1717L222.718 27.492L223.735 29.7759L225.565 33.8868M216.193 25.7448L216.423 28.1053L215.663 30.0858L213.126 31.7627M213.126 31.7627L213.532 32.6763M202.723 39.1308L201.96 36.1868L202.238 34.9682M202.723 39.1308L202.166 41.568M202.723 39.1308L208.818 42.9851L211.305 42.4251M202.166 41.568L202.573 42.4816L203.386 44.3086L204.607 47.0493L205.523 51.567M193.694 50.8132L194.001 53.9606M193.694 50.8132L198.318 57.5115L200.552 57.6115L203.75 56.188L205.523 51.567M194.001 53.9606L193.241 55.941L190.957 56.9578L187.303 58.5848M194.001 53.9606L194.611 55.3309L195.221 56.7012L197.355 59.0351L198.575 61.7758L198.222 64.6697M187.303 58.5848L187.049 59.2449L186.492 61.6821L187.102 63.0525L185.479 64.3227M185.479 64.3227L181.825 65.9496L178.727 65.1394M185.479 64.3227L186.952 66.4032L187.156 66.86M178.727 65.1394L178.627 67.3732L178.527 69.607L177.157 70.2172M177.157 70.2172L173.046 72.0475L171.142 72.0741M177.157 70.2172L177.413 74.4814L181.578 76.4586M171.142 72.0741L171.322 75.5515L172.289 78.9523L170.208 80.4259L167.011 81.8495L164.067 82.613L162.543 81.6494L159.749 79.0621M159.749 79.0621L160.97 81.8027L157.469 85.0033M157.469 85.0033L158.282 86.8304L156.102 90.5379L156.662 93.0251M156.662 93.0251L153.668 94.9055L151.841 95.7189L151.334 97.0392L152.226 99.0428L153.467 99.3731L153.874 100.287L154.078 100.743M156.662 93.0251L158.492 97.1361L159.409 101.654M156.662 93.0251L163.82 93.1219L167.017 91.6984M159.409 101.654L156.311 100.843L154.078 100.743M167.017 91.6984L167.674 87.0273L167.418 82.7631L173.002 83.0132L176.531 84.1786L178.13 83.4668L185.032 79.2993M167.017 91.6984L166.257 93.6788L167.274 95.9627M185.032 79.2993L181.578 76.4586M185.032 79.2993L184.831 83.767L185.088 88.0313M181.578 76.4586L186.728 74.1657L188.936 72.0878M188.936 72.0878L188.173 69.1438L187.156 66.86M188.936 72.0878L189.393 71.8845M187.156 66.86L189.543 68.5337L191.32 68.8372L195.838 67.9204M195.838 67.9204L198.222 64.6697M195.838 67.9204L195.738 70.1542M198.222 64.6697L199.999 64.9732L201.826 64.1597L204.566 62.9395M205.523 51.567L207.401 49.6366L208.871 46.7927L212.982 44.9623M211.305 42.4251L213.792 41.865L215.669 39.9346L216.175 36.9729M211.305 42.4251L212.982 44.9623M216.276 36.3805L215.056 33.6399L213.532 32.6763M216.276 36.3805L213.532 32.6763M216.276 36.3805L216.175 36.9729M216.175 36.9729L218.613 39.1712L219.73 39.2212L222.192 39.2196L224.374 37.1536M225.565 33.8868L225.465 36.1207L224.374 37.1536M225.565 33.8868L228.052 33.3268M228.052 33.3268L232.163 31.4964L233.634 28.6525L234.19 26.2153M228.052 33.3268L229.169 33.3768L230.946 33.6802L232.266 34.187L233.993 35.6074L235.924 37.4845M234.19 26.2153L233.377 24.3882L231.193 23.1712L230.203 22.7911M234.19 26.2153L235.924 26.7415L236.5 27M223.998 43.889L223.538 39.168L224.045 37.8477L224.374 37.1536M223.998 43.889L226.588 46.0195L228.315 47.4399L229.175 49.3707M223.998 43.889L220.547 45.9727L219.43 45.9227M229.175 49.3707L221.277 57.4458M229.175 49.3707L236.5 41.5L236.5 27M219.43 45.9227L215.826 46.4327L212.982 44.9623M219.43 45.9227L218.823 49.4768M218.823 49.4768L215.829 51.3572L213.85 53.0592L213.902 54.4045M218.823 49.4768L220.043 52.2174L221.264 54.9581L221.277 57.4458M213.902 54.4045L209.739 54.8895L207.15 55.2212L204.663 55.7812L204.97 58.9286L205.987 61.2125M213.902 54.4045L216.442 57.6519M205.987 61.2125L205.073 61.6192L204.566 62.9395M205.987 61.2125L208.017 60.8558L209.591 60.7024L213.917 60.7226M204.566 62.9395L204.086 66.1635M200.865 70.6078L202.236 69.9977L203.606 69.3876L204.086 66.1635M200.865 70.6078L197.668 72.0313L195.738 70.1542M200.865 70.6078L201.475 71.9781L201.375 74.2119L201.985 75.5822L202.471 76.6723M195.738 70.1542L193.504 70.0542L189.393 71.8845M189.393 71.8845L189.039 74.7784L189.143 77.469L191.783 78.4827L194.83 80.4098M194.83 80.4098L197.571 79.1896L200.312 77.9694L202.471 76.6723M194.83 80.4098L194.572 84.7474M202.471 76.6723L210.369 68.5972M202.471 76.6723L194.572 84.7474M204.086 66.1635L207.614 64.8666M207.614 64.8666L209.544 66.7438L210.369 68.5972M207.614 64.8666L210.811 63.4431L213.552 62.2229L213.917 60.7226M210.369 68.5972L221.277 57.4458M194.572 84.7474L191.187 88.2082M191.187 88.2082L188.447 89.4284L185.088 88.0313M191.187 88.2082L179.129 100.536M185.088 88.0313L180.977 89.8616M180.977 89.8616L178.768 89.2031L177.141 85.5489L176.763 89.0013L174.479 90.0182L172.652 90.8316L174.018 93.899M180.977 89.8616L176.571 94.716M176.571 94.716L174.018 93.899M176.571 94.716L177.588 97.0018L178.546 99.1536L179.129 100.536M174.018 93.899L170.928 94.3357L167.274 95.9627M167.274 95.9627L165.796 97.5596L165.151 99.8002L166.314 102.411M166.314 102.411L168.091 102.714L171.645 103.321L173.422 103.624L175.402 104.385M179.129 100.536L150.683 128M173.879 103.421L175.402 104.385M175.402 104.385L150.683 128M154.078 100.743L152.25 101.557L150.17 103.031M221.277 57.4458L216.442 57.6519M216.442 57.6519L215.936 58.9722L213.917 60.7226M236.5 1.10501L236.5 27" stroke="#0A0A09"/>
</g>
<g id="Vector 2">
<path d="M150.5 81.5L150.348 88.5L150.239 93.5L150.011 104L149.826 112.5L149.5 127.5L139 123.336L99.0206 107.479L99 107.5L99.0152 107.477L94.0299 105.5L78 99.1424L73.5 97.3576L63 93.1932L52.5 89.0288L38 83.278L27.5 79.1136L2 69L1.61628 58L1.59884 57.5L1.43314 52.75L1.26744 48L0.918605 38L0.534884 27L2 26H4L5.5 27H7L8.5 27.5L9 29L9.5 30L11 31L12.5 30H13.5L15 31L16.5 33H18.5H22L23.5 34H25.5L26.5 35L28.5 36L29.75 36.5L30.5 38H32H34.3333L36.5 39L38 40L39.5 41L40.5 41.5L43 42.1308H45H47.5L50 42.5L52.5 44V45L54.5 46L56.5 47L58.5 48H60.5L62 49L64.5 50L66.5 50.5L67.5 51.5L69.5 52.25L70 53.5L69.5 54.5H71.5H73.5L74.5 55.5L75.5 56H77.5L79 56.5L81 57.5H83.5L85 58L86.5 58.5L89 59.5L89.75 61L90 62.5H92.5H94.0299L96 63.5L97.5 64L99 65L100 66L101.5 65L103 64.5H105L106.5 65L107.5 66.5L108.5 68L109 69L110.5 70L111.5 70.5H112.5H114L116 71H118.5L119.5 72L120 73L120.5 73.5L123.5 73L125 73.5L127.5 74L129.5 74.5L131 75.5L131.5 77V78H133.5L135.5 79L138 79.5H140L141.5 80.5L142.5 81.5H144.5H148H150.5Z" fill="#EC9C47"/>
<path d="M0.5 26L0.534884 27M150.348 88.5L150.5 81.5H148H144.5H142.5M150.348 88.5L145.5 92.5M150.348 88.5L150.239 93.5M145.5 92.5L142.5 90V87.5L143.5 84.5V83M145.5 92.5H143.5V95L142.5 95.5L141.5 98.5V102L143.5 104L144.5 104.75M145.5 92.5L146.5 92.75M143.5 83L142.5 81.5M143.5 83H139.5L135.5 84.5L132.5 87.5M142.5 81.5L141.5 80.5L140 79.5H138L135.5 79L133.5 78H131.5M132.5 87.5L135.5 88.5L138 90V92.5L136.75 94M132.5 87.5L130 87M133.5 98.5L135.5 95.5L136.75 94M133.5 98.5H130.5H127.5H125.5L124.5 95M133.5 98.5V101V103L133 105M124.5 95L123.5 88.5M124.5 95V96.5M124.5 102L121 104H118L115 102H112.5M124.5 102V104L126.5 105M124.5 102V96.5M112.5 102L115 105.5L116 108.5L115 112.5L117 111.5H121L122.5 112.5L124.5 114.5V116.5L127.5 114.5H130.5L133.5 116.5L136.5 117L137.75 117.5M112.5 102L111.5 101.645H107.5L106.5 102M112.5 102V101V98.5M139 118V120.5V122M139 118V122M139 118L137.75 117.5M139 122V123.336M149.826 112.5L149.5 127.5L139 123.336M149.826 112.5L149.5 116.5L145.5 114.5H143.5L141.5 115.5M149.826 112.5L150.011 104M141.5 115.5L139.5 116.5L138.5 117.5H137.75M141.5 115.5V111.5L140.5 108M140.5 108L141.5 105.5H143.5L144.5 104.75M140.5 108L140 108.5H139H138L136.75 110M150.011 104H148H145.5L144.5 104.75M150.011 104L150.239 93.5M149.5 93.5H147.5L146.5 92.75M149.5 93.5L146.5 92.75M149.5 93.5H150.239M138 89.5L140 88.5M140 88.5L141.5 89.5M140 88.5L142.5 90.5L141.5 91L140.5 92.5L139 93.5L136.75 94M133 105H131H129.5H126.5M133 105L134 106V107.5L135.5 108.5L136.75 110M126.5 105L125 106L122.5 108V110L122 111L124.5 112.5H126.5L127 114L132.5 114.5V114L133 111.5L133.5 111L135 110H136.75M130 87L129.5 84.5V83L130.5 80.5L131.5 79V78M130 87L129 88L127 89.0288H126.5H125L123.5 88.5M131.5 78L127.5 83.5H125.5L123.5 83L122 81.5L120.5 81M131.5 78V77L131 75.5L129.5 74.5L127.5 74L125 73.5L123.5 73L120.5 73.5L120 73L119.5 72L118.5 71H116L114 70.5H112.5H111.5L110.5 70L109 69L108.5 68L107.5 66.5L106.5 65L105 64.5H103L101.5 65L100 66M120.5 81L120 79.5V77.5V75.5L120.5 74L119 78L117 79L115 79.5L111.5 79M120.5 81V84.5L119 88.5M111.5 79L111 77V75.5V73L111.5 72V71.5L112.5 71L109 74L106.5 75H103M111.5 79V80.5L109 81.5L107.5 82.5M103 75L101.5 73L101 70.5L100.5 69V67L100 66M103 75V78M100 66L99 70.5L96 71L92.5 70.5L91 69.5M100 66L99 65L97.5 64L96 63.5L94.0299 62.5H92.5H90M91 69.5L90 67V65V63.5V62.5M91 69.5L91.5 71V73V75.5L89.75 76.25M90 62.5L88 66L85 69H82M90 62.5L89.75 61L89 59.5L86.5 58.5L85 58L83.5 57.5H81L79 56.5L77.5 56H75.5M82 69L80 67.5L78 66H77.5L75.5 63.5V62V59V57.5V56M82 69L81 69.5L80 73M75.5 56L74.5 61L73 62M75.5 56L74.5 55.5L73.5 54.5H71.5H69.5M73 62L69.5 60M73 62V63.5V66L71.5 69L69.5 70.5M69.5 60V58V56V54.5M69.5 60V54.5M69.5 60L67 60.5M69.5 60V60.5L68.5 61H68L67 60.5M69.5 54.5L70 53.5L69.5 52.25L67.5 51.5L66.5 50.5L64.5 50L62 49L60.5 48H58.5L56.5 47L54.5 46L52.5 45V44L50 42.5L47.5 42.1308H45H43L40.5 41.5L39.5 41M67.5 61H64.5M64.5 61H64M64.5 61L67 60.5M61.5 61L58.5 59M61.5 61L58.5 64L59 65L60 66H60.5M61.5 61L60.5 66M58.5 59L64 61M58.5 59L55.5 61L52.5 62L49 61M64 61L57 57.5L54.5 51V48V46.5L53.5 53L51.5 54.5L50 55.5H47.5L46.25 55M40.5 51.5L43 53.5L45 54.5L46.25 55M40.5 51.5L39.5 49V45V43.5V42.5V42.1308M40.5 51.5V53V54.5L38 55.5L35 56.5M39.5 42.1308L38.5 46L38 47L36 48L34 49M39.5 42.1308V41M34 49L32 48L31 46L30.5 44.5V43.5V41.5V39.5V38M34 49L33 50L31 51.5L29.75 52.25M30.5 38L30 45L28.5 45.5H25.5L23.5 46.5L22 46M30.5 38L29.75 36.5L28.5 36L26.5 35L25.5 34H23.5L22 33H18.5H16.5M30.5 38H32H34.3333L36.5 39L38 40L39.5 41M22 46L21 45L19 43.5L17.5 42.5L16.5 41.5L16 39.5V36V34L16.5 33M22 46L21 48L19.5 50.5L18.5 51M16.5 33L15 40L13.5 41.5L12 42.1308M16.5 33L15 31L13.5 30H12.5L11 31L9.5 30M12 42.1308L9.5 41L8.5 38M12 42.1308L11.5 44L11 46V48M8.5 38L9 36.5V34V32L9.5 30M8.5 38L9.5 30M8.5 38H7H5.5H4H3H2H0.918605M9.5 30L9 29L8.5 27.5L7 27H5.5L4 26H2L0.534884 27M0.918605 38L1.26744 48M0.918605 38L0.534884 27M1.26744 48L3 49L4 50H5.5H7H9.5L11 48M1.26744 48L1.43314 52.75M11 48L11.5 51H12L13.5 51.5M13.5 51.5H16M13.5 51.5V60M16 51.5H17.5L18.5 51M16 51.5L15.75 55.25M18.5 51L19.5 53M19.5 53L21 54.5L23.5 55.5M19.5 53L16.5 54.5L15.75 55.25M23.5 55.5L26.5 54.5L28.5 53L29.75 52.25M23.5 55.5L24.5 56.5V59V63.5M29.75 52.25L30.5 54.5L32 56L35 56.5M35 56.5V57.5M47.5 59L47 56L46.25 55M47.5 59L49 61M47.5 59L43.5 65L41 65.5M49 61V62V64V67L50 71.5M60.5 66L61.5 69M60.5 66L59 74L57 75H53.5L50 71.5M61.5 69L63 70.5H65.5H69.5M61.5 69V70.5V72L60.5 75V78L62 80.5M69.5 70.5L70 71L71.5 73V74.5L73.5 75M73.5 75H77.5L80 73M73.5 75L73 77.5V78M80 73L81 75L82 77H83.5M83.5 77H88L89.75 76.25M83.5 77L85 81L82 84.5M89.75 76.25L91 79.5L91.5 83L94 83.5H97.5L100.5 83L101.5 81.5L103 78M103 78V81L107.5 82.5M107.5 82.5V84.5L111 87L111.5 89.5M111.5 89.5L115 90H117M111.5 89.5V94L112.5 98.5M111.5 89.5L105 92.5H101.5M117 90L119 88.5M117 90L118 91V93.1932L117 94V95V95.5M119 88.5H123.5M112.5 98.5L115 96.5L117 95.5M101.5 92.5L99 88.5L97.5 84.5L92.5 87L89.75 89.5H88L80 88.5M101.5 92.5L103 94V96.5M80 88.5L82 84.5M80 88.5L82 92.5L83.5 96.5M82 84.5H76.3625L73.5 83.5M73.5 83.5L73 80.5V78M73.5 83.5H73M73 78L71.5 80.5L70 81.5L65.5 82.5M65.5 82.5L62 80.5M65.5 82.5L66.5 84.5M62 80.5L60.5 81.5H58.5H55.5M50 71.5L47.5 70.5L45 68.5H40.5M41 65.5L38.5 66L36 65L34.3333 62.5M41 65.5L40.5 68.5M34 62V59L35 57.5M34 62L35 57.5M34 62L34.3333 62.5M34.3333 62.5L33 65.5L32 66L29.75 67L26.9167 66M24.5 63.5L25.5 65.5L26.9167 66M24.5 63.5L22 64M22 64H17.5L15 62L13.5 60M22 64L21 64.5L19.5 65.5L18.5 66.5L17.5 68.5L16.5 71L15 72L12.5 72.5L10.5 71.5L9.5 71L9 69.5L10 68L9 66.5L8.5 64.5L8.25 62.5M13.5 60V58L15 56L15.75 55.25M13.5 60L9.5 62.5H8.25M1.59884 57.5L4 59V60L7 62.5H8.25M1.59884 57.5L1.61628 58L2 69L27.5 79.1136M1.59884 57.5L2.5 56.5L3 55.25V53.5L1.43314 52.75M1.59884 57.5L1.43314 52.75M30 72L28.5 67.5L27.5 66.5L26.9167 66M30 72L28.5 75L27.5 77V79.1136M30 72L34 72.5L35 72M27.5 79.1136L38 83.278M35 72L38.5 71L40.5 68.5M35 72L37 75M37 75L40.5 75.5L43 76.25L43.5 77.5M37 75V78V81L38 83.278M43.5 77.5L47.5 76.25L50 75.5L52.5 75L53.5 78V80.5M43.5 77.5L42.5 81.5M53.5 80.5H54.5L55.5 81.5M53.5 80.5L51.5 81L50 81.5L46.0561 83.278M55.5 81.5L57.25 84.25M62 87H60.5H59L57.25 84.25M62 87H65.5L66.5 84.5M62 87V88.5L63 90.5V92V93.1932M66.5 84.5L68.5 83.5H73M73 83.5L74.5 86L75.5 88.5L73.5 90.5L71.5 93.5M71.5 93.5H68.5H65.5L63 93.1932M71.5 93.5L73.5 97.3576M63 93.1932L52.5 89.0288M63 93.1932L73.5 97.3576M57.25 84.25L53.5 84.5M53.5 84.5L52.5 87V89.0288M53.5 84.5H50H47L46.0561 83.278M52.5 89.0288L38 83.278M73.5 97.3576L78 99.1424M78 99.1424H81L83.5 96.5M78 99.1424L94.0299 105.5M83.5 96.5H88M88 96.5L89.75 95V91L91.5 94H94H96V97.3576M88 96.5L94 99.1424M94 99.1424L96 97.3576M94 99.1424V101.645V104L94.0299 105.5M96 97.3576L99 96.5H103M103 96.5L105 97.3576L106.5 99.1424V102M106.5 102L105 103L102 105L100.5 106L99 107.5L100 106M94.0299 105.5L139 123.336M117 95.5H119L121.5 96L123.5 97.3576H123.989L124.5 96.5M38 83.278L42.5 81.5M42.5 81.5L43.5 82.5L46.0561 83.278" stroke="#0A0A09"/>
</g>
</g>
</svg>
