<svg width="220" height="156" viewBox="0 0 220 156" fill="none" xmlns="http://www.w3.org/2000/svg">
<g id="Sweat Gland">
<path d="M17 18.5C17.194 11.395 22 1 22 1L23.5 2.5V5L19 28L16 23L17 20.5V18.5Z" fill="white"/>
<path d="M9.49999 49.5C9.68802 43.7569 12 35 12 35L16 40C16 40 15.6149 40.5788 15.5 41C15.3459 41.5651 15.5473 41.9161 15.5 42.5C15.3851 43.9169 14.5 46 14.5 46C14.5 46 13.7199 49.0209 13.5 51C13.2197 53.5229 13.5 57.5 13.5 57.5L14 69.5C14 69.5 14.1767 71.6577 14.5 73C14.9924 75.0446 15.6358 76.0827 16.5 78C17.3074 79.7912 18.75 82.5 18.75 82.5C18.75 82.5 19.9056 84.5922 20.5 86C21.2205 87.7065 21.6071 88.6897 22 90.5C22.375 92.2279 22.5 95 22.5 95L23 102C23 102 23.3829 105.085 23 107C22.7578 108.211 22 110 22 110C22 110 23 110.243 23 112V116.5C23 118.257 23.2794 118.963 23 120.5C22.7791 121.715 22.4865 122.365 22 123.5C21.656 124.303 21.4903 124.777 21 125.5C20.3022 126.528 18.75 127.75 18.75 127.75L20 128.5H23C23.781 128.5 24.2206 128.449 25 128.5C26.1852 128.578 26.8871 128.585 28 129C29.0668 129.398 29.6039 129.798 30.5 130.5C31.3693 131.181 31.6795 131.761 32.5 132.5C33.4288 133.337 34.2781 133.479 35 134.5C35.6071 135.359 35.7904 135.97 36 137C36.2335 138.148 36 138.828 36 140C36 141.562 36.188 142.449 36 144C35.8062 145.598 35.763 146.582 35 148C34.5373 148.86 34.0964 149.227 33.5 150C32.7362 150.99 32.3841 151.616 31.5 152.5C30.6159 153.384 30.1299 153.965 29 154.5C27.402 155.257 26.2664 154.922 24.5 155C23.3296 155.052 22.6665 155.109 21.5 155C20.4132 154.899 19.7906 154.829 18.75 154.5C17.8333 154.21 17.3691 153.911 16.5 153.5C15.7107 153.126 15.2523 152.943 14.5 152.5L14.4573 152.475C13.877 152.133 13.535 151.931 13 151.5C12.3551 150.98 12.02 150.645 11.5 150C11.058 149.452 10.7343 149.164 10.5 148.5C10.1832 147.602 10.5 147.014 10.5 146.062C9.9142 145.843 9.57044 145.757 8.99999 145.5C7.96183 145.033 7.43683 144.647 6.49999 144C5.47122 143.289 4.92875 142.837 3.99999 142C3.17947 141.261 2.60338 140.925 1.99999 140C1.42558 139.119 1.20957 138.53 0.99999 137.5C0.766485 136.352 0.99999 135.672 0.99999 134.5V132.5C0.99999 131.719 0.849823 131.266 0.99999 130.5C1.23519 129.3 1.86378 128.795 2.49999 127.75C3.0492 126.848 3.38911 126.361 3.99999 125.5C4.56475 124.704 4.86355 124.24 5.49999 123.5C6.22004 122.662 6.71894 122.281 7.49999 121.5L8.49999 120.5L8.99999 118L10.5 115.5L13 113.5L15.5 112H16.5C17.0858 110.633 17.6607 109.948 18 108.5C18.4456 106.599 18 103.5 18 103.5C18 103.5 18.2963 97.6288 17.5 94C17.1953 92.6115 16.9222 91.8574 16.5 90.5C16.1332 89.3208 16.035 88.613 15.5 87.5C14.7723 85.9861 13.8524 85.4474 13 84C12.3353 82.8713 11.5 81 11.5 81C11.5 81 10.4687 78.9113 9.99999 77.5C9.43254 75.7915 8.99999 73 8.99999 73V67L9.49999 53C9.49999 53 9.45526 50.8661 9.49999 49.5Z" fill="white"/>
<path d="M195.5 14L197 3.5L197.5 7.5V10C197.5 10 190.076 32.3305 197 42.5C197.549 43.307 198.5 44.5 198.5 44.5L200 46.5C200 46.5 201.096 48.4235 201.5 49C201.904 49.5765 202.339 51.6417 202.5 52.5C202.661 53.3583 203.5 69 203.5 69V71.5L203 75L202.5 78C202.5 78 202.019 81.9565 202.069 84.5C202.108 86.4595 201.982 87.6098 202.5 89.5C202.893 90.9342 204 93 204 93C204 93 204.557 94.2477 205 95C205.357 95.6065 205.168 95.3793 205.5 96C206.083 97.0887 206.609 97.8284 207 99C207.195 99.5858 207.333 99.9056 207.5 100.5C207.77 101.458 207.116 102.543 208 103C208.52 103.269 208.914 103 209.5 103C210.086 103 210.444 102.815 211 103C211.786 103.262 212.5 104.5 212.5 104.5C212.5 104.5 213.13 104.377 213.5 104.5C214.024 104.675 214.5 105.5 214.5 105.5C214.5 105.5 215.118 105.42 215.5 105.5C216.189 105.645 216.461 106.047 217 106.5C217.423 106.855 217.645 107.077 218 107.5C218.453 108.039 218.701 108.363 219 109C219.586 110.25 219.5 111.119 219.5 112.5C219.5 113.881 219.391 115.414 219 116L218 117.5C217.609 118.086 217.498 118.502 217 119C216.502 119.498 216.116 119.659 215.5 120C214.595 120.5 214.022 120.68 213.049 120.985L213 121C212.232 121.241 211.801 121.417 211 121.5C210.417 121.56 210.079 121.586 209.5 121.5C208.675 121.377 208.281 121.043 207.5 120.75C207.138 121.077 208.5 121.196 206.5 121.5C205.279 121.685 204.733 121.573 203.5 121.5C202.192 121.423 201.51 121.834 200.5 121C200.074 120.648 199.858 120.42 199.5 120C198.762 119.133 198.614 118.459 198 117.5C197.62 116.907 197.329 116.623 197 116C196.336 114.743 196 112.5 196 112.5V110.5L197 108L198.5 106.5C198.5 106.5 201.873 104.75 201 103.5C200.842 103.274 200.686 103.204 200.5 103C199.734 102.158 198.5 99.5 198.5 99.5L197 97C197 97 196.309 95.1957 196 94C195.751 93.036 195.638 92.4861 195.5 91.5C195.176 89.1793 195.352 87.8385 195.5 85.5C195.611 83.7353 196 81 196 81L197 77L198 73.5C198 73.5 198.344 71.6774 198.5 70.5C199.27 64.6897 198.018 61.3611 198 55.5C197.998 54.9142 198.108 54.5758 198 54C197.868 53.2951 197.246 51.9979 197.332 52.1631L196 49.5L195 47.5L194 45L193 41.5L193 32.5C193 31.5237 192.759 30.9462 193 30C193.281 28.8965 193.532 26.0378 194 25L194.5 19L195.5 14Z" fill="white"/>
<path d="M203.5 128L202 126.5L213.5 127L212 129L208 130L205.5 129L203.5 128Z" fill="white"/>
<path d="M16.5 112C17.0858 110.633 17.6607 109.948 18 108.5C18.4456 106.599 18 103.5 18 103.5C18 103.5 18.2963 97.6288 17.5 94C17.1953 92.6115 16.9222 91.8574 16.5 90.5C16.1332 89.3208 16.035 88.613 15.5 87.5C14.7723 85.9861 13.8524 85.4474 13 84C12.3353 82.8713 11.5 81 11.5 81C11.5 81 10.4687 78.9113 9.99999 77.5C9.43254 75.7915 8.99999 73 8.99999 73V67L9.49999 53C9.49999 53 9.45526 50.8661 9.49999 49.5C9.68802 43.7569 12 35 12 35L16 40C16 40 15.6149 40.5788 15.5 41C15.3459 41.5651 15.5473 41.9161 15.5 42.5C15.3851 43.9169 14.5 46 14.5 46C14.5 46 13.7199 49.0209 13.5 51C13.2197 53.5229 13.5 57.5 13.5 57.5L14 69.5C14 69.5 14.1767 71.6577 14.5 73C14.9924 75.0446 15.6358 76.0827 16.5 78C17.3074 79.7912 18.75 82.5 18.75 82.5C18.75 82.5 19.9056 84.5922 20.5 86C21.2205 87.7065 21.6071 88.6897 22 90.5C22.375 92.2279 22.5 95 22.5 95L23 102C23 102 23.3829 105.085 23 107C22.7578 108.211 22 110 22 110M16.5 112C16.0549 112.545 15.8323 112.879 15.5 113.5C14.9171 114.589 15.021 115.38 14.5 116.5C14.0196 117.532 13.247 117.889 13 119C12.8306 119.762 12.8741 120.229 13 121C13.1694 122.038 13.6095 122.524 14 123.5M16.5 112C16.1095 112 15.5 112 15.5 112L13 113.5L10.5 115.5L8.99999 118L8.49999 120.5M14 123.5C14.4694 124.356 14.8096 124.81 15.5 125.5C16.1903 126.19 16.6825 126.466 17.5 127C17.9767 127.311 18.75 127.75 18.75 127.75M14 123.5C14.5389 122.686 14.8693 122.245 15.5 121.5C16.3918 120.446 17.082 120.031 18 119C18.8313 118.066 19.4037 117.599 20 116.5C20.589 115.415 20.6095 114.672 21 113.5C21.1953 112.914 21.3244 112.592 21.5 112C21.729 111.228 22 110 22 110M20 128.5L23 130C23 130 24.9172 130.406 26 131C26.856 131.469 27.2596 131.864 28 132.5C28.8376 133.22 30 134.5 30 134.5L32 137C32 137 32.4223 138.815 32.5 140C32.5511 140.779 32.5 141.219 32.5 142C32.5 143.172 32.9229 143.907 32.5 145C32.2458 145.657 31.9419 145.952 31.5 146.5C30.9799 147.145 30 148 30 148L28 150H26L24 151H21.5M20 128.5L18.75 127.75M20 128.5C20 128.5 21.8284 128.5 23 128.5C23.781 128.5 24.2206 128.449 25 128.5C26.1852 128.578 26.8871 128.585 28 129C29.0668 129.398 29.6039 129.798 30.5 130.5C31.3693 131.181 31.6795 131.761 32.5 132.5C33.4288 133.337 34.2781 133.479 35 134.5C35.6071 135.359 35.7904 135.97 36 137C36.2335 138.148 36 138.828 36 140C36 141.562 36.188 142.449 36 144C35.8062 145.598 35.763 146.582 35 148C34.5373 148.86 34.0964 149.227 33.5 150C32.7362 150.99 32.3841 151.616 31.5 152.5C30.6159 153.384 30.1299 153.965 29 154.5C27.402 155.257 26.2664 154.922 24.5 155C23.3296 155.052 22.6665 155.109 21.5 155C20.4132 154.899 19.7906 154.829 18.75 154.5C17.8333 154.21 17.3691 153.911 16.5 153.5C15.7107 153.126 15.2523 152.943 14.5 152.5C13.8934 152.143 13.548 151.942 13 151.5C12.3551 150.98 12.02 150.645 11.5 150C11.058 149.452 10.7343 149.164 10.5 148.5C10.1832 147.602 10.5 147.014 10.5 146.062M21.5 151L18.5 150L16.5 148.5C16.5 148.5 15.8905 148.195 15.5 148M21.5 151L23 150L24 149L25 147L26 145.5L27 143.5L28 141.5V139L26 137L24 134.5C24 134.5 23.5648 133.42 23 133C22.3541 132.519 21 132.5 21 132.5L18.5 131.5M15.5 148C16.6513 148.292 17.3162 148.403 18.5 148.5C19.6676 148.596 20.8501 149.475 21.5 148.5C21.9332 147.85 21.594 147.275 21.5 146.5C21.4031 145.701 21.4322 145.179 21 144.5C20.7035 144.034 20.5076 143.718 20 143.5C19.4616 143.269 19.0827 143.56 18.5 143.5C17.2716 143.373 16.7225 142.675 15.5 142.5C14.5335 142.362 13.9763 142.5 13 142.5M15.5 148C15.1095 147.609 15.0076 147.218 14.5 147C13.9616 146.769 13.5809 147.075 13 147C11.9659 146.866 11.367 146.642 10.5 146.062M13 142.5C11.9609 142.339 11.3635 142.1 10.5 141.5C9.81969 141.027 9.47154 140.681 8.99999 140C8.6272 139.462 8.24999 138.5 8.24999 138.5M13 142.5C13 141.524 13 140 13 140V137.5L13.5 136L15.5 135.5H18.5L21 137L23 139L24.5 140.5L25 142.5L26 145M10.5 125.5C10.1095 125.891 9.89051 126.109 9.49999 126.5C8.71894 127.281 8.09301 127.568 7.49999 128.5C6.83698 129.542 6.6926 130.28 6.49999 131.5C6.31727 132.657 6.26648 133.352 6.49999 134.5C6.70957 135.53 7.05998 136.045 7.49999 137C7.77405 137.595 8.24999 138.5 8.24999 138.5M10.5 125.5C9.9142 124.719 9.40534 124.388 8.99999 123.5C8.50686 122.419 8.49999 120.5 8.49999 120.5M10.5 125.5C10.747 126.611 11.1355 127.259 12 128C12.663 128.568 13.2549 128.545 14 129C14.8331 129.509 15.1512 130.018 16 130.5C16.9141 131.02 18.5 131.5 18.5 131.5M8.49999 120.5C8.49999 120.5 7.89051 121.109 7.49999 121.5C6.71894 122.281 6.22004 122.662 5.49999 123.5C4.86355 124.24 4.56475 124.704 3.99999 125.5C3.38911 126.361 3.0492 126.848 2.49999 127.75C1.86378 128.795 1.23519 129.3 0.99999 130.5C0.849823 131.266 0.99999 131.719 0.99999 132.5C0.99999 133.281 0.99999 133.719 0.99999 134.5C0.99999 135.672 0.766485 136.352 0.99999 137.5C1.20957 138.53 1.42558 139.119 1.99999 140C2.60338 140.925 3.17947 141.261 3.99999 142C4.92875 142.837 5.47122 143.289 6.49999 144C7.43683 144.647 7.96183 145.032 8.99999 145.5C9.57044 145.757 9.9142 145.843 10.5 146.062M18.5 131.5H15.5L13 132.5L11.5 134L10.5 135.5L9.49999 137.5L8.24999 138.5M18.75 127.75C18.75 127.75 20.3022 126.528 21 125.5C21.4903 124.777 21.656 124.303 22 123.5C22.4865 122.365 22.7791 121.715 23 120.5C23.2794 118.963 23 118.257 23 116.5C23 114.743 23 113.757 23 112C23 110.243 22 110 22 110M196 112.5V110.5L197 108L198.5 106.5C198.5 106.5 201.873 104.75 201 103.5C200.842 103.274 200.686 103.204 200.5 103C199.734 102.158 198.5 99.5 198.5 99.5L197 97C197 97 196.309 95.1957 196 94C195.751 93.036 195.638 92.4861 195.5 91.5C195.176 89.1793 195.352 87.8385 195.5 85.5C195.611 83.7353 196 81 196 81L197 77L198 73.5C198 73.5 198.344 71.6774 198.5 70.5C199.27 64.6897 198.018 61.3611 198 55.5C197.998 54.9142 198.108 54.5758 198 54C197.839 53.1417 196.953 51.4052 197.5 52.5C198.047 53.5948 196.391 50.281 196 49.5C195.609 48.719 195 47.5 195 47.5L194 45L193 41.5C193 41.5 193 36.0147 193 32.5C193 31.5237 192.759 30.9462 193 30C193.281 28.8965 193.532 26.0378 194 25L194.5 19L195.5 14L197 3.5L197.5 7.5V10C197.5 10 190.076 32.3305 197 42.5C197.549 43.307 198.5 44.5 198.5 44.5L200 46.5C200 46.5 201.096 48.4235 201.5 49C201.904 49.5765 202.339 51.6417 202.5 52.5C202.661 53.3583 203.5 69 203.5 69V71.5L203 75L202.5 78C202.5 78 202.019 81.9565 202.069 84.5C202.108 86.4595 201.982 87.6098 202.5 89.5C202.893 90.9342 204 93 204 93C204 93 204.557 94.2477 205 95C205.357 95.6065 205.168 95.3793 205.5 96C206.083 97.0887 206.609 97.8284 207 99C207.195 99.5858 207.333 99.9056 207.5 100.5C207.77 101.458 207.116 102.543 208 103C208.52 103.269 208.914 103 209.5 103C210.086 103 210.444 102.815 211 103C211.786 103.262 212.5 104.5 212.5 104.5M196 112.5C196 112.5 196.336 114.743 197 116C197.329 116.623 197.62 116.907 198 117.5C198.614 118.459 198.762 119.133 199.5 120C199.858 120.42 200.074 120.648 200.5 121C201.51 121.834 202.192 121.423 203.5 121.5C204.733 121.573 205.279 121.685 206.5 121.5C208.5 121.196 207.138 121.077 207.5 120.75M196 112.5C196 112.5 196.934 114.209 198 114.5C198.565 114.654 198.915 114.523 199.5 114.5C201.278 114.431 204 113.786 204 113.786L201.5 114.5M201.5 114.5C201.5 114.5 202.563 115.726 203.5 116C204.25 116.219 205.5 116 205.5 116C205.5 116 207.024 116 208 116C208.195 116 208.305 116 208.5 116M201.5 114.5C201.5 114.5 203.827 114.303 205 113.5C205.684 113.032 205.877 112.546 206.5 112C207.234 111.356 207.788 111.168 208.5 110.5C209.411 109.644 209.656 108.922 210.5 108C211.059 107.389 211.595 107.223 212 106.5C212.394 105.798 212.5 104.5 212.5 104.5M212.5 104.5C212.5 104.5 213.13 104.377 213.5 104.5C214.024 104.675 214.5 105.5 214.5 105.5M214.5 105.5C214.5 105.5 215.315 106.321 215.5 107C215.654 107.565 215.5 108.5 215.5 108.5C215.5 108.5 215.828 110.081 215.5 111C215.263 111.663 215.014 112.019 214.5 112.5C213.862 113.096 213.252 113.057 212.5 113.5C211.893 113.857 211.593 114.12 211 114.5C210.041 115.114 209.493 115.443 208.5 116M214.5 105.5C214.5 105.5 215.118 105.42 215.5 105.5C216.189 105.645 216.461 106.047 217 106.5C217.423 106.855 217.645 107.077 218 107.5C218.453 108.039 218.701 108.363 219 109C219.586 110.25 219.5 111.119 219.5 112.5C219.5 113.881 219.391 115.414 219 116C218.609 116.586 218.391 116.914 218 117.5C217.609 118.086 217.498 118.502 217 119C216.502 119.498 216.116 119.659 215.5 120C214.58 120.509 214.003 120.686 213 121C212.232 121.241 211.801 121.417 211 121.5C210.417 121.56 210.079 121.586 209.5 121.5C208.675 121.377 208.281 121.043 207.5 120.75M208.5 116C209.281 116 210.5 115 210.5 116C210.5 117 210.623 116.927 210.5 117.5C210.238 118.723 209.445 119.181 208.5 120C208.131 120.32 207.891 120.457 207.5 120.75M22 1C22 1 17.194 11.395 17 18.5V20.5L16 23L19 28L23.5 5V2.5L22 1ZM202 126.5L203.5 128L205.5 129L208 130L212 129L213.5 127L202 126.5Z" stroke="black" stroke-linecap="square" stroke-linejoin="round"/>
</g>
</svg>
