<svg width="75" height="64" viewBox="0 0 75 64" fill="none" xmlns="http://www.w3.org/2000/svg">
<g id="Vein">
<g id="Vector 21">
<path d="M28.5 31C28.5 31 30.4661 29.6915 31.5 29.5C32.46 29.3222 32.0237 29.5 33 29.5C34.1716 29.5 34.8901 29.6248 36 30C37.1844 30.4004 38.144 31.0887 39 32C39.6685 32.7116 39.6913 33.0738 40 34C40.3087 34.9262 40.5 36.5 40.5 36.5V39H42C42 39 43.2486 38.789 44 38.5C45.0627 38.0913 45.5237 37.5858 46.5 37C47.4763 36.4142 48.0577 36.139 49 35.5C49.808 34.952 50.2547 34.6306 51 34C52.054 33.1081 52.5362 32.4887 53.5 31.5C60.1844 24.6433 69 12.5 69 12.5L70 11L72 10.5H73.5L74 12.5V14L72 16L58.5 33L52.5 39L49 42L41 45.5C41 45.5 36.4289 46.719 33.5 47.5C24.7132 53.5531 11 63 11 63H10L13.5 61L15 58L15.5 56L15 54.5L14.5 52.5L14 51.5L13 50.5L12 49.5L11 49L10 48.5H9H8H7H6L3 50.5L13 42.3878V42L12.5 40L12 38.5L11.5 36V33.5L12 28.5L13.5 26L15.5 23L17.5 21.5L19.5 20L22 19.5L24.5 18.5L27 18L30 17.5H32L34.5 16L36.5 14L37.5 12.5L38 11V2H39L40.5 1.5L42.5 1V2V5L43 9.5L42.5 13L41.5 15.5L38 18.5L33.5 21L29.5 21.5L23 23L19.5 24.5L17 27.5L15.5 30.5L15 34L15.5 37L16.25 40L28.5 31Z" fill="#7C3D84"/>
<path d="M40.5 39V36.5C40.5 36.5 40.3087 34.9262 40 34C39.6913 33.0738 39.6685 32.7116 39 32C38.144 31.0887 37.1844 30.4004 36 30C34.8901 29.6248 34.1716 29.5 33 29.5C32.0237 29.5 32.46 29.3222 31.5 29.5C30.4661 29.6915 28.5 31 28.5 31L16.25 40M40.5 39C40.5 39 36.2497 40.2773 33.5 41C31.9427 41.4093 29.5 42 29.5 42C29.5 42 27.5519 42.7195 26.5 43.5C25.6129 44.1582 24.8493 44.4521 24.5 45.5C24.253 46.241 24.19 46.7831 24.5 47.5C24.8875 48.3961 26.5 49 26.5 49C26.5 49 28.3428 49.1827 29.5 49C30.7198 48.8074 32.5 48 32.5 48C32.5 48 33.1095 47.6953 33.5 47.5M40.5 39H42C42 39 43.2486 38.789 44 38.5C45.0627 38.0913 45.5237 37.5858 46.5 37C47.4763 36.4142 48.0577 36.139 49 35.5C49.808 34.952 50.2547 34.6306 51 34C52.054 33.1081 52.5362 32.4887 53.5 31.5C60.1844 24.6433 69 12.5 69 12.5L70 11L72 10.5H73.5L74 12.5V14L72 16L58.5 33L52.5 39L49 42L41 45.5C41 45.5 36.4289 46.719 33.5 47.5M33.5 47.5C24.7132 53.5531 11 63 11 63H10L13.5 61L15 58L15.5 56L15 54.5L14.5 52.5L14 51.5L13 50.5L12 49.5L11 49L10 48.5H9H8H7H6L3 50.5L13 42.3878M16.25 40L15.5 37L15 34L15.5 30.5L17 27.5L19.5 24.5L23 23L29.5 21.5L33.5 21L38 18.5L41.5 15.5L42.5 13L43 9.5L42.5 5V2V1L40.5 1.5L39 2H38V11L37.5 12.5L36.5 14L34.5 16L32 17.5H30L27 18L24.5 18.5L22 19.5L19.5 20L17.5 21.5L15.5 23L13.5 26L12 28.5L11.5 33.5V36L12 38.5L12.5 40L13 42V42.3878M16.25 40L13 42.3878" stroke="black"/>
</g>
<circle id="Ellipse 2" cx="8" cy="56" r="7.5" fill="#7C3D84" stroke="black"/>
</g>
</svg>
